<svg xmlns="http://www.w3.org/2000/svg" width="500" height="500" viewBox="0 0 625.289 449.96"><line x2="100.605" transform="translate(0 449.46)" fill="none" stroke="#3f3d56" stroke-miterlimit="10" stroke-width="1"/><rect width="446.663" height="302.422" rx="19.398" transform="translate(147.272 77.645)" fill="#f2f2f2"/><rect width="446.663" height="302.422" rx="19.398" transform="translate(133.635 58.554)" fill="none" stroke="#3f3d56" stroke-miterlimit="10" stroke-width="1"/><line x2="446.663" transform="translate(133.635 87.548)" fill="none" stroke="#3f3d56" stroke-miterlimit="10" stroke-width="1"/><rect width="121.817" height="18.788" rx="7.093" transform="translate(400.603 155.523)" fill="#f0544f" opacity="0.3"/><rect width="168.484" height="15.151" rx="7.093" transform="translate(377.27 207.644)" fill="#f0544f" opacity="0.3"/><rect width="168.484" height="15.151" rx="7.093" transform="translate(377.27 248.856)" fill="#f0544f" opacity="0.3"/><rect width="168.484" height="15.151" rx="7.093" transform="translate(377.27 290.068)" fill="#f0544f" opacity="0.3"/><rect width="121.817" height="18.788" rx="7.093" transform="translate(406.663 149.463)" fill="none" stroke="#3f3d56" stroke-miterlimit="10" stroke-width="1"/><rect width="168.484" height="15.151" rx="7.093" transform="translate(383.33 201.584)" fill="none" stroke="#3f3d56" stroke-miterlimit="10" stroke-width="1"/><rect width="168.484" height="15.151" rx="7.093" transform="translate(383.33 242.795)" fill="none" stroke="#3f3d56" stroke-miterlimit="10" stroke-width="1"/><rect width="168.484" height="15.151" rx="7.093" transform="translate(383.33 284.007)" fill="none" stroke="#3f3d56" stroke-miterlimit="10" stroke-width="1"/><circle cx="9.091" cy="9.091" r="9.091" transform="translate(158.484 67.645)" fill="#f0544f" opacity="0.3"/><circle cx="9.091" cy="9.091" r="9.091" transform="translate(183.938 67.645)" fill="#f0544f" opacity="0.3"/><circle cx="9.091" cy="9.091" r="9.091" transform="translate(209.392 67.645)" fill="#f0544f" opacity="0.3"/><circle cx="9.091" cy="9.091" r="9.091" transform="translate(162.12 64.009)" fill="none" stroke="#3f3d56" stroke-miterlimit="10" stroke-width="1"/><circle cx="9.091" cy="9.091" r="9.091" transform="translate(187.574 64.009)" fill="none" stroke="#3f3d56" stroke-miterlimit="10" stroke-width="1"/><circle cx="9.091" cy="9.091" r="9.091" transform="translate(213.029 64.009)" fill="none" stroke="#3f3d56" stroke-miterlimit="10" stroke-width="1"/><path d="M522.749,614.24a90.366,90.366,0,0,1-1.414-23.249s-7.7-33.81-13.751-36.964l0,0c-.093.119-3.031,3.972-3.4,15.893a49.015,49.015,0,0,1-4.666,20.058s1.388,15.1.594,24.259Z" transform="translate(-247.992 -265.991)" fill="#f0544f"/><path d="M530.076,298.379H390.407A14.407,14.407,0,0,0,376,312.786V499.122a14.407,14.407,0,0,0,14.407,14.407h49c-1.636-6.787-3.671-17.388-1.611-24.759v0c.1-.344.2-.683.313-1.012A38.482,38.482,0,0,0,439.5,473a30.672,30.672,0,0,0,0-12.868c-1.514-7.064-2.573-14-2.573-14s-.834-9.335-.106-15.057c.016-.126.035-.245.053-.367l-.4-.092s2.145-9.714,2.9-15.9c.179-1.459.414-3.309.669-5.282a12.683,12.683,0,0,1-2.056-.521c-6.812-2.4-8.957-24.1-8.957-24.1V377.94s-2.271-10.534,5.677-15.2a92.425,92.425,0,0,1,10.925-5.81c.058-.042.115-.08.175-.126a6.7,6.7,0,0,0,1.994-2.566q.016-.26.007-.516c-.129-2.465-1.845-4.706-3.473-6.662l-4.166-5a4.892,4.892,0,0,1-1.073-1.736,4,4,0,0,1-.113-1.093q0-.2,0-.408.034-1.866.1-3.731c.039-1.086.313-2.457,1.376-2.68.553-.116,1.286.086,1.578-.4a.948.948,0,0,0,.071-.643c0,.016,0,.033-.009.049,0-.02-.007-.041-.011-.061a13.6,13.6,0,0,1-.394-2.658,3.539,3.539,0,0,1,.171-1.194c.616-1.8,2.738-2.543,4.613-2.883s3.98-.633,5.156-2.132a16.326,16.326,0,0,1,1.023-1.439,4.018,4.018,0,0,1,1.919-.968,10.6,10.6,0,0,1,6.973.619,6.144,6.144,0,0,0,2.813.908c1.033-.065,1.916-.793,2.936-.97,1.648-.286,3.223.949,4.036,2.411a5.97,5.97,0,0,1,.747,3.044,4.189,4.189,0,0,1-1.069,2.873c-.709.752-1.768,1.269-2.062,2.26-.12.4-.092.838-.2,1.245-.013.051-.035.1-.052.148.019.025.041.049.06.075a12.867,12.867,0,0,1-6.262,20.012c0,.128-.01.255-.009.384a5.559,5.559,0,0,0,1.721,4.282l11.241,4.61s6.767-.82,9.209,9.278a17.467,17.467,0,0,1,.418,5.126,15.292,15.292,0,0,0,1.853,7.673c2.775,5.551,2.145,18.292-3.532,19.554-5.377,1.195-7.469.693-7.675.636l-.012.223c.089,2.391.94,23.011,4.029,25.506.854.69.691,1.156-.01,1.47l0,0s.006.132.019.371c.093,1.508.57,7.251,2.638,10.519,2.4,3.785,2.146,25.61,2.146,25.61l1.639,12.868s-1.009,7.948,0,9.335c.573.787,1.267,12.972,1.761,23.375h42.139a14.407,14.407,0,0,0,14.407-14.407V312.786a14.407,14.407,0,0,0-14.407-14.407Z" transform="translate(-199.335 -165.28)" fill="#f0544f"/><rect width="168.484" height="215.15" rx="23.772" transform="translate(162.12 116.736)" fill="none" stroke="#3f3d56" stroke-miterlimit="10" stroke-width="1"/><path d="M180.669,400.3s-5.651-1.671-6.863.147,1.653,15,1.653,15l12.452.757-4.346-10.974Z" transform="translate(-119.564 -205.156)" fill="#2f2e41"/><path d="M107.264,579.347s11.33,24.874,2.6,24.093-12.111-24.093-12.111-24.093Z" transform="translate(-89.723 -275.966)" fill="#a0616a"/><path d="M234.749,573.575s-4.97,26.877,3.306,24.006,5.918-26.308,5.918-26.308Z" transform="translate(-143.107 -272.785)" fill="#a0616a"/><path d="M165.432,387.5s-.13,12.5,4.688,13.153-2.735,7.293-2.735,7.293l-8.6,1.693-12.372-.911-5.47-7.032s9.637-4.558,5.47-18.753Z" transform="translate(-106.738 -198.594)" fill="#a0616a"/><path d="M165.432,387.5s-.13,12.5,4.688,13.153-2.735,7.293-2.735,7.293l-8.6,1.693-12.372-.911-5.47-7.032s9.637-4.558,5.47-18.753Z" transform="translate(-106.738 -198.594)" opacity="0.1"/><path d="M181.532,564.935s6.121,13.153,1.3,54.436c0,0,1.433,14.586.26,17.321s-10.809,39.85-10.809,39.85-12.372,2.735-14.065-5.47c0,0,1.693-11.721,1.563-13.544s2.735-21.748,2.735-21.748l-5.86-38.548L152.23,632s0,10.028-1.433,12.242,0,46.753,0,46.753,4.037,6.772-2.084,6.9-11.59-.13-12.111-4.428-.781-8.6-2.084-11.2-3-32.427-2.6-42.846-8.6-63.943-5.73-69.543S181.532,564.935,181.532,564.935Z" transform="translate(-100.699 -270.279)" fill="#1b1725"/><circle cx="15.628" cy="15.628" r="15.628" transform="translate(36.425 162.342)" fill="#a0616a"/><path d="M139.354,411.439s9.507,7.032,23.311,1.432c0,0,4.558-2.214,4.167-5.6s9.507,27.218,9.507,27.218l10.028,53.264-.521,21.748s-4.428-2.214-18.232,2.735-36.334-5.6-36.334-5.6l.781-55.869.781-32.557,2.084-7.163S135.968,409.095,139.354,411.439Z" transform="translate(-102.928 -208.075)" fill="#f2f2f2"/><path d="M182.063,399.886s2.3-.374,4.514,3.143,7.423,5.73,7.423,5.73,12.632.781,14.456,7.553,6.381,16.018,8.6,33.078,6.642,44.278,7.293,46.492-.912,8.986.912,11.069-12.893,2.084-12.893,2.084-1.3-10.679-2.214-10.679-.651,7.163.26,12.372-6.642,0-6.642,0-5.86-23.832-11.46-45.32-8.855-33.339-7.814-38.157,3.907-18.623,1.823-19.925S182.063,399.886,182.063,399.886Z" transform="translate(-122.934 -205.263)" fill="#1b1725"/><path d="M126.841,399.874a141.86,141.86,0,0,0-12,7.973c-8.6,6.121-14.456,10.809-14.456,10.809s-3.386,2.6-5.47,18.1-6.772,55.608-4.949,60.687,2.474,8.074,1.823,11.07,13.674,2.865,13.935,2.214-.391-12.5.26-12.763,4.167,7.032,4.818,13.153,8.2,10.939,9.9,10.939,10.418-35.292,10.549-59.385-2.865-44.408-5.079-47.273S126.841,399.874,126.841,399.874Z" transform="translate(-86.492 -205.263)" fill="#1b1725"/><path d="M181.336,741.518s1.042-2.865,4.688-1.953,6.121-2.344,6.121-2.344,1.953-.26.651,2.214-2.344,4.167-2.344,4.167,7.814,17.842,2.735,22.139a10.89,10.89,0,0,1-10.939,1.693s-5.73-4.037-5.47-14.716c0,0-.26-3.386-3.386-8.856s-5.47-13.8-1.693-15.367,4.749-1.621,4.749-1.621-1.767,8.083,2.8,10.908Z" transform="translate(-118.084 -334.083)" fill="#3f3d56"/><path d="M146.432,779.8s-3.126-5.86,2.084-6.511,10.809-1.042,10.549,1.693-.912,6.9-.912,6.9l.912,3s.26,7.423,1.172,8.335,5.86,8.725-4.688,8.725-13.674-1.172-12.763-3.646,1.172-14.716,1.172-14.716Z" transform="translate(-107.402 -352.183)" fill="#3f3d56"/><path d="M148.31,344.122s7.293,1.953,11.07,2.735,3.386-1.433,3.386-1.433,4.949.651,4.688.13,2.084-3.256-.651-6.381-1.953-5.47-1.953-5.47h-2.344l-.651-.912h-3.646s-2.735-1.042-9.9,0-16.93,1.3-17.711,5.6-4.819,9.637-3.386,12.111,9.637,12.632,10.418,16.93,4.43,5.252,4.3,2.561-3.778-12.068-.652-12.459S149.743,349.2,148.31,344.122Z" transform="translate(-101.206 -178.655)" fill="#2f2e41"/><path d="M1010.9,86.584a13.928,13.928,0,0,0-12.006,8.394c-3,7.257.863,15.781,6.666,21.073s13.257,8.316,20.029,12.292c9.1,5.34,17.271,12.753,21.822,22.269s5.036,21.3-.315,30.394c-4.966,8.438-14,13.488-22.607,18.145" transform="translate(-444.309 -81.844)" fill="none" stroke="#3f3d56" stroke-miterlimit="10" stroke-width="1"/><ellipse cx="11" cy="5.5" rx="11" ry="5.5" transform="translate(563.289)" fill="#f0544f"/><ellipse cx="10.5" cy="5" rx="10.5" ry="5" transform="translate(572.289 34)" fill="#f0544f"/><path d="M10.781,0c5.954,0,10.781,2.413,10.781,5.39s-4.827,5.39-10.781,5.39S0,8.367,0,5.39,4.827,0,10.781,0Z" transform="translate(552.519 39.081)" fill="#f0544f"/><ellipse cx="10" cy="4.5" rx="10" ry="4.5" transform="translate(583.289 69)" fill="#f0544f"/><ellipse cx="11" cy="4.5" rx="11" ry="4.5" transform="translate(603.289 69)" fill="#f0544f"/></svg>