<svg xmlns="http://www.w3.org/2000/svg" width="22" height="22" viewBox="0 0 61.887 49.804"><g transform="translate(-1 -7)"><path d="M62.887,50,52,43.2V47H43.467a22.948,22.948,0,0,0,7.512-16h3.826L48,20.113,41.195,31H44.97A16.926,16.926,0,0,1,40.7,41.28,2.958,2.958,0,0,0,41,40V19.08a17.424,17.424,0,0,1,1.507,2.091l.521.853,5.142-3.13-.521-.854A23,23,0,0,0,5.021,29H1.195L8,39.887,14.8,29H11.03A16.913,16.913,0,0,1,15,19.077V40a3,3,0,0,0,3,3H38a2.967,2.967,0,0,0,1.231-.271A16.917,16.917,0,0,1,28,47H11v2H28A19.021,19.021,0,0,0,47,30V29H44.805L48,23.887,51.195,29H49v1A21.024,21.024,0,0,1,28,51H1v2H52v3.8ZM21,23V21h2v2h2V21h2v2h2V21h2v2h2V21h2v2h2V21h2v4H17V21h2v2ZM9,30v1h2.195L8,36.113,4.805,31H7V30A21,21,0,0,1,45.4,18.238L43.671,19.29A18.985,18.985,0,0,0,9,30Zm6.062-11a16.943,16.943,0,0,1,25.87,0H37V17H35v2H33V17H31v2H29V17H27v2H25V17H23v2H21V17H19v2ZM38,41H18a1,1,0,0,1-1-1V27H39V40A1,1,0,0,1,38,41Zm-.636,10a22.974,22.974,0,0,0,3.573-2H54V46.8L59.113,50,54,53.2V51Z" fill="#fff"/><path d="M7,47H9v2H7Z" fill="#fff"/><path d="M3,47H5v2H3Z" fill="#fff"/><path d="M35,29h2v2H35Z" fill="#fff"/><path d="M31,29h2v2H31Z" fill="#fff"/><path d="M27,29h2v2H27Z" fill="#fff"/><path d="M23,29h2v2H23Z" fill="#fff"/><path d="M19,29h2v2H19Z" fill="#fff"/><path d="M35,33h2v2H35Z" fill="#fff"/><path d="M31,33h2v2H31Z" fill="#fff"/><path d="M27,33h2v2H27Z" fill="#fff"/><path d="M23,33h2v2H23Z" fill="#fff"/><path d="M19,33h2v2H19Z" fill="#fff"/><path d="M35,37h2v2H35Z" fill="#fff"/><path d="M31,37h2v2H31Z" fill="#fff"/><path d="M27,37h2v2H27Z" fill="#fff"/><path d="M23,37h2v2H23Z" fill="#fff"/><path d="M19,37h2v2H19Z" fill="#fff"/></g></svg>