<svg xmlns="http://www.w3.org/2000/svg" width="500" height="300" viewBox="0 0 699.213 424.203"><g transform="translate(0 0)"><ellipse cx="254.537" cy="22.902" rx="254.537" ry="22.902" transform="translate(190.139 378.4)" fill="#3f3d56"/><rect width="276.281" height="187.127" transform="translate(596.543 187.127) rotate(180)" fill="#3f3d56" opacity="0.3"/><rect width="81.806" height="89.155" transform="translate(497.101 17.145)" fill="#f2f2f2"/><rect width="78.867" height="5.388" transform="translate(446.646 22.533) rotate(180)" fill="#f2f2f2"/><rect width="27.922" height="5.388" transform="translate(525.023 125.404) rotate(180)" fill="#f2f2f2"/><rect width="79.847" height="5.388" transform="translate(577.928 135.201) rotate(180)" fill="#f2f2f2"/><rect width="113.648" height="5.388" transform="translate(465.26 42.128) rotate(180)" fill="#f2f2f2"/><rect width="113.648" height="5.388" transform="translate(465.26 57.314) rotate(180)" fill="#f2f2f2"/><rect width="113.648" height="5.388" transform="translate(465.26 72.5) rotate(180)" fill="#f2f2f2"/><rect width="113.648" height="5.388" transform="translate(465.26 87.685) rotate(180)" fill="#f2f2f2"/><rect width="113.648" height="5.388" transform="translate(465.26 102.871) rotate(180)" fill="#f2f2f2"/><rect width="113.648" height="5.388" transform="translate(465.26 118.056) rotate(180)" fill="#f2f2f2"/><rect width="113.648" height="5.388" transform="translate(465.26 133.242) rotate(180)" fill="#f2f2f2"/><path d="M843.109,225.506a14.471,14.471,0,0,1,3.961-1.987,101.008,101.008,0,0,1,27.911-6.076c8.3-.589,17.294.11,23.776,5.326a8.177,8.177,0,0,1,2.412,2.81c.816,1.76.568,3.805.3,5.727a6.473,6.473,0,0,1-.555,2.156c-.872,1.661-3.02,2.243-4.885,2.043s-3.616-.988-5.456-1.354a24.39,24.39,0,0,0-3.446-.351l-11.539-.625c-7.176-.388-14.446-.77-21.484.678a21.4,21.4,0,0,0-6.207,2.139c-1.608.9-2.69,2.2-4.182.531C841.1,233.6,839.647,228.212,843.109,225.506Z" transform="translate(-333.722 -157.452)" fill="#2f2e41"/><path d="M869.818,236.178s15.521-6.958,21.408,1.07-3.211,4.817-3.211,4.817l-10.169,3.211-11.239-2.141Z" transform="translate(-342.55 -163.021)" fill="#f2f2f2"/><path d="M872.741,227.34s2.141,10.169.535,12.845,9.1,6.422,9.1,6.422l10.169-4.282s-2.676-16.591,0-19.8Z" transform="translate(-344.67 -159.268)" fill="#ffb9b9"/><path d="M872.741,227.34s2.141,10.169.535,12.845,9.1,6.422,9.1,6.422l10.169-4.282s-2.676-16.591,0-19.8Z" transform="translate(-344.67 -159.268)" opacity="0.1"/><path d="M893.4,205.863a16.069,16.069,0,0,1-16.056,16.056,15.669,15.669,0,0,1-2.853-.257,16.055,16.055,0,1,1,18.909-15.8Z" transform="translate(-340.712 -147.959)" fill="#ffb9b9"/><path d="M898.132,271.148H846.927l1.161-5.041,5.026-21.9,5.81-3.924,0,0,2.729-1.847,1.357-.916s.8.367,1.729.867c.269.152.544.309.818.475,0,0,0,0,0,0a9.592,9.592,0,0,1,1.264.877c.073.069.137.127.2.191,1.019,1.019,3.992,6.427,8.911,3.659a7.5,7.5,0,0,0,.72-.451,35.646,35.646,0,0,0,3.659-2.9c1.034-.945,1.7-1.675,2.253-2.18a3.558,3.558,0,0,1,.833-.617,1.584,1.584,0,0,1,.75-.181c1.607,0,3.747,3.209,3.747,3.209l.064.186.005.015,6.755,20.28Z" transform="translate(-335.747 -164.358)" fill="#f2f2f2"/><path d="M841.882,269.37H857.4a37.768,37.768,0,0,0-.279-5.369c-.475-3.581-1.641-7.029-2.376-10.566a44.446,44.446,0,0,1-.936-9.425c0-.436.015-.877.054-1.318a6.033,6.033,0,0,1,.848-2.861c.367-.563.872-1.043,1.264-1.582a3.635,3.635,0,0,0,.358-.563v0a3.268,3.268,0,0,0,.132-.3,2.419,2.419,0,0,0,.147-.73c.088-1.617-1.377-3.174-2.959-3.84a11.062,11.062,0,0,0-6.931-.279,32.994,32.994,0,0,0-6.515,2.665c-.7.343-1.4.7-2.067,1.087a10.261,10.261,0,0,0-2.19,1.666c-1.666,1.719-2.4,4.115-2.983,6.432a13.6,13.6,0,0,0-.563,5.486c0,.059.02.122.029.181.583,3.052,3.071,5.344,4.4,8.156,1.538,3.262,1.435,7.064.823,10.62-.029.181-.064.363-.1.544h4.326Z" transform="translate(-330.703 -162.58)" fill="#2f2e41"/><path d="M927.752,247.814a121.265,121.265,0,0,0-4.227,19.6H901.4q-.867-2.366-1.729-4.737a35.493,35.493,0,0,1-1.181-3.645,17.45,17.45,0,0,1-.495-4.389c0-.353.015-.71.044-1.063a.015.015,0,0,0,0-.02,17.535,17.535,0,0,1,1.278-5.423,20.256,20.256,0,0,1,1.127-2.288c1.029-1.861,2.273-3.615,3.38-5.437a24.965,24.965,0,0,0,1.8-3.488.018.018,0,0,1,0-.015,12.521,12.521,0,0,0,1.014-4.874c-.034-2.16-3.689-5.927.284-5.565,5.423.49,10.081,3.61,14.328,7.167,1.132.95,2.239,1.935,3.321,2.9,1.675,1.509,3.444,3.155,3.948,5.354a5.714,5.714,0,0,1,.142,1.068A14.661,14.661,0,0,1,927.752,247.814Z" transform="translate(-353.4 -160.624)" fill="#2f2e41"/><path d="M883.188,246.481a11.962,11.962,0,0,0-2.512-4.05,9.318,9.318,0,0,0-3.837-1.944,20.983,20.983,0,0,0-5.628-.807c-2.267-.014-4.895.594-5.857,2.646-.764,1.63-.172,3.559.6,5.186a5.085,5.085,0,0,0,1.587,2.143,8.807,8.807,0,0,0,3.4.861,15.684,15.684,0,0,1,5.026,2.277l3.97,2.4,6.819,4.122c-.18-.109-.116-4.785-.325-5.551C885.754,251.3,884.235,248.819,883.188,246.481Z" transform="translate(-341.994 -165.198)" fill="#ffb9b9"/><path d="M890.25,193.082a4.076,4.076,0,0,0-1.768-2.307,9.351,9.351,0,0,0-.373-3.045c-.972-2.875-3.276-2.71-5.449-3.981-.943-.551-.885-1.039-1.376-1.944a7.216,7.216,0,0,0-2.781-2.837,10.006,10.006,0,0,0-4.516-1.916c-3.467-.236-6.124,3.024-9.437,4.071-1.46.461-3.03.48-4.5.916s-2.933,1.477-3.151,2.993c-.1.7.077,1.418-.025,2.117-.2,1.39-1.424,2.364-2.24,3.508-1.806,2.529-1.6,6.1-.155,8.853a12.449,12.449,0,0,0,1.041,1.63,10.023,10.023,0,0,0,1.1,3.722,18.552,18.552,0,0,0,6.525,6.516,15.39,15.39,0,0,1-.385-2.779,1.917,1.917,0,0,1,.118-.921c.289-.6,1.053-.765,1.635-1.1a4.133,4.133,0,0,0,1.714-3.59c.035-1.387-.259-2.776-.114-4.156a2.27,2.27,0,0,1,.777-1.671,2.685,2.685,0,0,1,1.466-.349c2.472-.1,5.054-.146,7.234-1.315a10.716,10.716,0,0,1,2.252-1.139c1.853-.483,3.746.815,4.814,2.4s1.6,3.481,2.585,5.123,2.687,3.106,4.592,2.912a.762.762,0,0,0,.569-.253.853.853,0,0,0,.1-.485l.106-7.281A11.005,11.005,0,0,0,890.25,193.082Z" transform="translate(-337.963 -143.546)" fill="#2f2e41"/><path d="M838.25,266.741q.522,4.3.632,8.626H825.411V264.047c.069-.274.142-.544.23-.813.843-2.6,2.611-4.771,4.144-7.029.074-.113.152-.225.225-.338a18.389,18.389,0,0,0,1.675-3.022c.22-.519.573-3.032.945-3.248,1.6-.926,2.9,3.032,3.116,3.914.784,3.14,1.465,6.309,1.979,9.508Q838.027,264.877,838.25,266.741Z" transform="translate(-328.31 -168.578)" fill="#2f2e41"/><path d="M927.91,273.773H896.985c-.265-.622-.524-1.244-.8-1.862a54.426,54.426,0,0,0-7.417-12.163,3.218,3.218,0,0,1-.916-1.817,1.538,1.538,0,0,1,.2-.818c.47-.877,1.715-1.391,2.724-1.807a9.386,9.386,0,0,0,2.831-1.783,6.071,6.071,0,0,0,1.636-2.415,5.3,5.3,0,0,0,.206-.833l.431.563c.348.461.7.916,1.058,1.372,3.429,4.4,7.2,8.744,11.933,11.355a20.079,20.079,0,0,0,3.9,1.661,1.023,1.023,0,0,0,.823,0,1,1,0,0,0,.358-.656c.421-1.763.568-3.581.877-5.369a30.582,30.582,0,0,1,3.228-9.3c.877-1.631,3.728-7.593,5.535-3.836q.779,1.624,1.568,3.258c.328.691.661,1.376.994,2.067a12.855,12.855,0,0,1,1.612,7.2Q927.841,266.19,927.91,273.773Z" transform="translate(-349.894 -166.984)" fill="#2f2e41"/><path d="M844.818,282.555h2.68l-1.519-5.041-2.19-7.265a23.7,23.7,0,0,1-.211,3.679,24.5,24.5,0,0,1-2.136,7.27c-.211.446-.436.9-.617,1.357h3.992Z" transform="translate(-333.638 -175.765)" opacity="0.1"/><path d="M929.041,265.38a5.233,5.233,0,0,0,.256,3.18,32.034,32.034,0,0,1,1.168,9.3.338.338,0,0,1-.4.406c-1.235.076-2.65.084-3.488-.827Z" transform="translate(-363.281 -174.082)" opacity="0.1"/><rect width="276.281" height="187.127" transform="translate(0 1.926)" fill="#3f3d56" opacity="0.3"/><rect width="81.806" height="89.155" transform="translate(17.635 19.071)" fill="#f2f2f2"/><rect width="78.867" height="5.388" transform="translate(149.897 19.071)" fill="#f2f2f2"/><rect width="27.922" height="5.388" transform="translate(18.615 121.942)" fill="#f2f2f2"/><rect width="79.847" height="5.388" transform="translate(18.615 131.739)" fill="#f2f2f2"/><rect width="113.648" height="5.388" transform="translate(131.283 38.666)" fill="#f2f2f2"/><rect width="113.648" height="5.388" transform="translate(131.283 53.851)" fill="#f2f2f2"/><rect width="113.648" height="5.388" transform="translate(131.283 69.037)" fill="#f2f2f2"/><rect width="113.648" height="5.388" transform="translate(131.283 84.222)" fill="#f2f2f2"/><rect width="113.648" height="5.388" transform="translate(131.283 99.408)" fill="#f2f2f2"/><rect width="113.648" height="5.388" transform="translate(131.283 114.594)" fill="#f2f2f2"/><rect width="113.648" height="5.388" transform="translate(131.283 129.78)" fill="#f2f2f2"/><path d="M204.338,275.648H193.7q-1.227-3.3-2.18-6.682a13.349,13.349,0,0,0-3.468-7.069,13.112,13.112,0,0,1-1.494-2.028,9.525,9.525,0,0,1-.94-5.775,15,15,0,0,1,.274-1.636c.465-2.092,1.244-4.1,1.9-6.138a2.328,2.328,0,0,1,1.9-1.573,3.77,3.77,0,0,1,2.077.24,2.576,2.576,0,0,1,.416.216,6.429,6.429,0,0,1,2.248,3.439q3.329,8.935,6.652,17.87.647,1.734,1.293,3.478c.637,1.7,1.269,3.409,1.808,5.148C204.24,275.31,204.289,275.476,204.338,275.648Z" transform="translate(-107.12 -166.932)" fill="#d0cde1"/><path d="M136.446,171.416c-2.644.893-5.04,2.982-5.581,5.719-.251,1.269-.1,2.588-.308,3.865-.49,2.96-2.813,5.221-4.957,7.321s-4.356,4.54-4.513,7.536c-.171,3.281,2.208,6.355,1.8,9.614-.478,3.787-4.478,6.241-5.467,9.928a9.551,9.551,0,0,0,1.48,7.287c2.537,4.142,6.872,6.954,11.489,8.462a47.865,47.865,0,0,0,14.391,1.876c5.914.062,12.334-.446,16.778-4.349a13.441,13.441,0,0,0,4.462-8.75c.422-4.521-1.465-9.192-.163-13.543.819-2.738,2.873-5.238,2.567-8.079-.3-2.778-2.726-4.747-4.39-6.991a28.416,28.416,0,0,1-3.421-7.009l-3.162-8.347a9.688,9.688,0,0,0-2.69-4.444c-2.594-2.016-6.764-1.62-9.8-1.2C142.147,170.693,139.151,170.5,136.446,171.416Z" transform="translate(-83.501 -141.102)" fill="#2f2e41"/><path d="M149.969,213.253s.31,9.286-.619,10.214,3.714,7.119,3.714,7.119l8.357-.31,4.333-3.4-3.714-4.952s-1.548-8.048-.31-9.9S149.969,213.253,149.969,213.253Z" transform="translate(-94.578 -155.43)" fill="#a0616a"/><path d="M149.969,213.253s.31,9.286-.619,10.214,3.714,7.119,3.714,7.119l8.357-.31,4.333-3.4-3.714-4.952s-1.548-8.048-.31-9.9S149.969,213.253,149.969,213.253Z" transform="translate(-94.578 -155.43)" opacity="0.1"/><circle cx="11.143" cy="11.143" r="11.143" transform="translate(49.355 39.096)" fill="#a0616a"/><path d="M147.455,268.889h9.033c.338-.612.656-1.249,1.024-1.827v0a5,5,0,0,1,1.646-1.724,6.484,6.484,0,0,0,1.22-.73,3.147,3.147,0,0,0,.745-1.391,21.559,21.559,0,0,0,1.019-6.006c.015-.686,0-1.381.039-2.067a8.692,8.692,0,0,1,.206-1.592,12.537,12.537,0,0,1,1.337-3.027q1.837-3.343,3.684-6.687a4.673,4.673,0,0,0,.25-1.959,4.83,4.83,0,0,0-.794-2.513c-.171-.309-.358-.617-.554-.916a20.345,20.345,0,0,0-2.626-3.351,21.242,21.242,0,0,0-7.475-5.06,4.337,4.337,0,0,1-1-.49,4.169,4.169,0,0,1-.921-1.1c-.98-1.474-2.175-3.135-3.943-3.042a2.425,2.425,0,0,0-1.871-.127,2.556,2.556,0,0,0-.274.088,17.412,17.412,0,0,0-1.964,1.024,9.118,9.118,0,0,1-5.291.96,1.791,1.791,0,0,1-.617-.157,3.163,3.163,0,0,1-.568-.46,3.266,3.266,0,0,0-3.248-.519,2.949,2.949,0,0,0-1.293.911c-.323.407-.549.9-.906,1.279-.926.99-2.454,1.029-3.806,1.024a35.178,35.178,0,0,0-8.362.769,15.9,15.9,0,0,0-6.584,3.184l0,0c-.265.225-.509.456-.754.7a5.592,5.592,0,0,0-1.3,1.861c-.372.96-.323,2.043-.661,3.018-.372,1.092-1.2,1.984-1.533,3.081a12.391,12.391,0,0,1-.642,2.508c.02.015.034.029.054.044,1.783,1.568,3.307,3.625,5.095,5.178a10.281,10.281,0,0,1,2.586,2.89,4.771,4.771,0,0,1,.318.784,12.052,12.052,0,0,1,.265,2.851c.225,4.58,2.709,8.734,5.486,12.379.054.073.108.147.167.216Z" transform="translate(-81.245 -160.173)" fill="#d0cde1"/><path d="M114.176,261.883q-.632,4.387-1.274,8.768a38.2,38.2,0,0,1-.872,4.644c-.255.945-.583,1.871-.813,2.817H98.461a12.225,12.225,0,0,1,.122-1.582,26.159,26.159,0,0,1,1.592-5.491q2.226-6.011,4.448-12.031c.632-1.71,1.176-3.5,1.871-5.193.122-.313.255-.627.4-.931.74-1.626,2.792-.96,4.311-.715a4.093,4.093,0,0,1,1.205.343,3.11,3.11,0,0,1,1.132,1.068c1.44,2.131,1.127,4.948.754,7.495Q114.235,261.479,114.176,261.883Z" transform="translate(-77.03 -169.396)" fill="#d0cde1"/><path d="M176.951,289.2c.02.068.23.8.578,1.827H166.894c5.271-.906,10.057-1.832,10.057-1.832Z" transform="translate(-100.685 -182.315)" fill="#2f2e41"/><ellipse cx="12.071" cy="6.5" rx="12.071" ry="6.5" transform="translate(49.355 37.239)" fill="#2f2e41"/><rect width="276.281" height="187.127" transform="translate(176.991 70.814)" fill="#3f3d56"/><ellipse cx="32.331" cy="3.429" rx="32.331" ry="3.429" transform="translate(380.773 238.346)" opacity="0.1"/><rect width="81.806" height="89.155" transform="translate(194.626 87.959)" fill="#f2f2f2"/><path d="M399.223,307.6a1.2,1.2,0,0,0,1.408-.582c1.131-1.783-.952-4.081-.5-6.144.361-1.653,2.239-2.633,2.623-4.281.373-1.6-.776-3.405,0-4.854.609-1.135,2.129-1.433,3.4-1.235s2.48.758,3.765.836c1.713.1,3.345-.65,5.02-1.023s3.718-.227,4.7,1.178c1.265,1.8-.018,4.316.422,6.475.35,1.714,1.785,3.134,1.816,4.883.011.622-1.624.121-1.537.737s-.686.074-.068,0a1.223,1.223,0,0,0,.929-1.105c.073-.513,1.037-.684,1.026-1.2-.026-1.214,2.169-.4,2.53-1.555a11.755,11.755,0,0,0-.48-8.2,16.426,16.426,0,0,1-1.4-3.335c-.322-1.61.185-3.337-.347-4.89-.717-2.093-3.088-3.16-5.289-3.376s-4.439.171-6.628-.148c-1.961-.286-3.859-1.136-5.837-1.013-2.373.148-4.439,1.677-6.084,3.394s-3.041,3.692-4.909,5.163a9.627,9.627,0,0,0-1.574,1.355,5.287,5.287,0,0,0-.783,4.288c.265,1.477.841,2.885,1.084,4.365.229,1.391.158,2.812.257,4.219a7.416,7.416,0,0,0,1.237,3.982,3.759,3.759,0,0,0,2.925,1.528c.4.009.73-.347,1.13-.254C398.562,306.918,398.779,307.393,399.223,307.6Z" transform="translate(-178.254 -178.703)" fill="#2f2e41"/><path d="M375.913,389.532c.358-4.9.627-8.568.627-8.568l2.312-6.094,7.421,14.661Z" transform="translate(-172.935 -211.929)" fill="#1b1725"/><path d="M375.913,388.249c.288-4.475.505-7.818.505-7.818l1.863-5.561,5.98,13.379Z" transform="translate(-170.923 -211.929)" fill="#1b1725" opacity="0.1"/><path d="M402.2,321.332s6.92,17.615,2.936,20.97,22.228-5.662,22.228-5.662l-.629-2.307s-8.6-3.355-4.4-13S402.2,321.332,402.2,321.332Z" transform="translate(-182.02 -191.94)" fill="#a0616a"/><path d="M402.2,321.332s6.92,17.615,2.936,20.97,22.228-5.662,22.228-5.662l-.629-2.307s-8.6-3.355-4.4-13S402.2,321.332,402.2,321.332Z" transform="translate(-182.02 -191.94)" opacity="0.1"/><circle cx="14.679" cy="14.679" r="14.679" transform="translate(215.354 107.163)" fill="#a0616a"/><path d="M438.939,353.8s-.059,1.166-.162,3.2c-.211,4.149-.588,11.923-.965,20.893h-56.9a28.212,28.212,0,0,1-3.62-6.481,6.994,6.994,0,0,1-.426-2.087c-.314-5.56,4.668-13.319,8.186-14.059,3.983-.843,11.531-8.808,11.531-8.808a1.8,1.8,0,0,0,.96,1.45v0a3.9,3.9,0,0,0,1.974.431c2.459,0,13.275-4.992,16.748-6.623.681-.318,1.078-.509,1.078-.509a81.4,81.4,0,0,0,12.374,4.2,13.16,13.16,0,0,1,9.224,8.386Z" transform="translate(-173.259 -200.297)" fill="#1b1725"/><path d="M395.377,305.353a1.2,1.2,0,0,0,1.408-.582c1.131-1.783-.952-4.081-.5-6.144.361-1.653,2.239-2.633,2.623-4.281.373-1.6-.776-3.405,0-4.854.609-1.135,2.129-1.433,3.4-1.235s2.48.758,3.765.836c1.713.1,3.345-.65,5.02-1.023s3.718-.227,4.7,1.178c1.265,1.8-.018,4.316.422,6.475.35,1.714,4.335,2.917,4.7,1.758a11.755,11.755,0,0,0-.48-8.2,16.424,16.424,0,0,1-1.4-3.335c-.322-1.609.185-3.337-.347-4.89-.717-2.093-3.088-3.16-5.289-3.376s-4.439.171-6.628-.148c-1.961-.286-3.859-1.136-5.837-1.013-2.373.148-4.439,1.677-6.084,3.394s-3.041,3.692-4.909,5.163a9.628,9.628,0,0,0-1.574,1.355,5.287,5.287,0,0,0-.783,4.288c.265,1.477.841,2.885,1.084,4.365.229,1.391.158,2.812.257,4.219a7.415,7.415,0,0,0,1.237,3.982,3.758,3.758,0,0,0,2.925,1.528c.4.009.73-.347,1.13-.254C394.716,304.675,394.933,305.149,395.377,305.353Z" transform="translate(-176.925 -177.928)" fill="#2f2e41"/><path d="M472.864,384.548H456.258c-1.264-9.268-2.307-18.958-2.307-18.958l3.356-1.47,6.819-3.669s.5,1.185,1.3,3.2C467.142,367.971,470.253,376.093,472.864,384.548Z" transform="translate(-199.91 -206.945)" opacity="0.1"/><path d="M472.279,383.329H453.537c-2.777-10.14-5.516-21.162-5.516-21.162l7.132-5.242,8.386,2.307S468.449,370.916,472.279,383.329Z" transform="translate(-197.86 -205.726)" fill="#1b1725"/><rect width="78.867" height="5.388" transform="translate(326.888 87.959)" fill="#ffa163"/><rect width="27.922" height="5.388" transform="translate(195.605 190.83)" fill="#ffa163"/><rect width="79.847" height="5.388" transform="translate(195.605 200.627)" fill="#ffa163"/><rect width="113.648" height="5.388" transform="translate(308.274 107.553)" fill="#f2f2f2"/><rect width="113.648" height="5.388" transform="translate(308.274 122.739)" fill="#f2f2f2"/><rect width="113.648" height="5.388" transform="translate(308.274 137.924)" fill="#f2f2f2"/><rect width="113.648" height="5.388" transform="translate(308.274 153.11)" fill="#f2f2f2"/><rect width="113.648" height="5.388" transform="translate(308.274 168.296)" fill="#f2f2f2"/><rect width="113.648" height="5.388" transform="translate(308.274 183.482)" fill="#f2f2f2"/><rect width="113.648" height="5.388" transform="translate(308.274 198.667)" fill="#f2f2f2"/><path d="M716.522,429.786l-31.067,31.067L672.4,447.795a4.463,4.463,0,0,0-6.312,0l-.469-.7c-1.743,1.743-1.274,5.271.469,7.014l16.942,16.942a3.406,3.406,0,0,0,4.815,0L722.831,436.1c1.744-1.742,2.377-4.938.634-6.681h0C721.722,427.675,718.264,428.043,716.522,429.786Z" transform="translate(-272.696 -230.39)" fill="#f0544f"/><path d="M754.6,430.018Z" transform="translate(-303.834 -230.991)" fill="#f0544f" opacity="0.1"/><path d="M716.658,427.786l-31.067,31.067-13.058-13.057a4.464,4.464,0,0,0-6.312,0h0a4.464,4.464,0,0,0,0,6.313l16.942,16.942a3.406,3.406,0,0,0,4.815,0L722.967,434.1a4.462,4.462,0,0,0,0-6.312h0a4.462,4.462,0,0,0-6.311,0Z" transform="translate(-272.832 -229.768)" fill="#f0544f"/><path d="M978.925,680.942c0,35.029-48.826,24.194-108.609,24.194s-107.882,10.835-107.882-24.194,48.819-42.647,108.6-42.647S978.925,645.913,978.925,680.942Z" transform="translate(-306.541 -302.985)" opacity="0.1"/><path d="M978.925,670.942c0,35.029-48.826,24.194-108.609,24.194s-107.882,10.835-107.882-24.194,48.819-42.647,108.6-42.647S978.925,635.913,978.925,670.942Z" transform="translate(-306.541 -299.528)" fill="#3f3d56"/><path d="M766.543,525.762l-2.212,2.569s-26.9,2.526-25.809,6.893S770.91,529.4,770.91,529.4Z" transform="translate(-298.264 -264.086)" fill="#ffc1c7"/><path d="M832.434,522.425s-28.749,10.19-44.4,5.823l7.278,14.557s37.119-1.092,43.67-7.642S832.434,522.425,832.434,522.425Z" transform="translate(-315.391 -262.933)" fill="#f0544f"/><circle cx="19.287" cy="19.287" r="19.287" transform="translate(478.286 142.857)" fill="#ffc1c7"/><path d="M835.524,396.67a15.046,15.046,0,0,0,2.5,3.464,31.547,31.547,0,0,0,9.3,6.957,316.809,316.809,0,0,1-33.125,4.926c1.174-4.135-.371-8.557-2.448-12.32s-4.725-7.271-6.025-11.368l13.037.35c2.365.064,4.738.134,7.1.019,1.768-.087,4.712-1.146,6.362-.755C835.711,388.766,834,393.576,835.524,396.67Z" transform="translate(-321.504 -216.417)" fill="#ffc1c7"/><path d="M843.585,536.782l10.917,13.1s18.2,42.578-21.471,46.945-69.144-3.275-69.144-3.275-16.012-7.642-16.376-1.82-1.819,22.2-10.553,38.211l-7.642,17.468s-4,4-2.911,9.462-24.382,7.278-24.018,0c0,0,3.639-6.187,3.639-9.826s5.823-12.373,5.823-12.373l10.554-52.4s-.728-26.93,24.018-21.835,60.046-1.092,60.046-1.092l8.006-28.021Z" transform="translate(-285.783 -266.009)" fill="#2f2e41"/><path d="M843.585,536.782l10.917,13.1s18.2,42.578-21.471,46.945-69.144-3.275-69.144-3.275-16.012-7.642-16.376-1.82-1.819,22.2-10.553,38.211l-7.642,17.468s-4,4-2.911,9.462-24.382,7.278-24.018,0c0,0,3.639-6.187,3.639-9.826s5.823-12.373,5.823-12.373l10.554-52.4s-.728-26.93,24.018-21.835,60.046-1.092,60.046-1.092l8.006-28.021Z" transform="translate(-285.783 -266.009)" opacity="0.1"/><path d="M784.892,536.647s33.3-12.506,51.858,14.059c0,0,4.731,41.122-14.193,42.942s-43.67,1.456-49.492-4.731-42.578-23.654-42.578-23.654-18.3-9.332-21.885,2.794-3.953,15.038-3.953,15.038-18.924,13.829-26.566,16.376c0,0-5.095,7.278-8.006,7.278s-20.743,4-18.924-9.462l29.477-26.93,29.477-28.749s8.37-12.373,29.841-5.823a443.918,443.918,0,0,0,43.306,10.554Z" transform="translate(-268.03 -266.832)" fill="#2f2e41"/><path d="M710.013,721.52s6.914,17.468,1.092,19.651-18.2.728-18.2.728-14.557-1.82-18.2-1.456-18.56-2.547-16.376-8.37,13.465-4.367,13.465-4.367l10.19-4.731s1.092-3.639,3.639-2.183S695.456,727.706,710.013,721.52Z" transform="translate(-270.483 -331.382)" fill="#cbceda"/><path d="M657.271,638.882s7.642,17.1-4.731,15.648-21.835-4-25.474-4.367c-3.5-.35-13.4-3.731-11.88-10.466a5.987,5.987,0,0,0,.1-1.322c0-.9,1.228-2.678,11.054-2.405,0,0,7.278,0,10.19-5.095C636.528,630.876,647.445,644.7,657.271,638.882Z" transform="translate(-255.588 -300.42)" fill="#cbceda"/><path d="M805.834,416.8s26.2-16.376,48.037,0,36.391,90.979,36.391,90.979L839.678,496.5s-2.183-8.734-5.095-10.19-3.275-7.642-3.275-7.642-15.648-4.731-14.557-22.927S805.834,416.8,805.834,416.8Z" transform="translate(-321.543 -223.907)" fill="#f0544f"/><path d="M809.341,421.76H795.877s-8.006,9.1-9.1,32.024l-4.367,18.2s-9.1,21.835-3.639,25.474,16.012,3.275,18.2-4,17.1-49.492,17.1-49.492Z" transform="translate(-311.586 -228.137)" fill="#f0544f"/><path d="M801.642,334.521a19.5,19.5,0,0,1,20.167,3.307c6.989,6.237,8.4,16.412,10.166,25.611s5.321,19.444,13.991,22.99a36.452,36.452,0,0,1-11.746-.342l13.1,11.742-22.071-7.194c-6.927-2.258-14.2-4.544-21.375-3.269-11.883,2.112-20.156,13.284-31.57,17.208l1.268-6.189-7.657-.059a15,15,0,0,0,4.387-5.14,4.246,4.246,0,0,0-2.929-1.533c-3.192-19.911,8.631-39.592,24.039-52.6,3.031-2.559,6.384-5.016,10.3-5.656s8.484,1.11,9.845,4.836" transform="translate(-307.745 -197.477)" fill="#2f2e41"/><path d="M310.2,614.159c0,41.888,26.278,75.783,58.753,75.783" transform="translate(-150.219 -294.642)" fill="#3f3d56"/><path d="M399.987,689.494c0-42.359,29.325-76.635,65.565-76.635" transform="translate(-181.256 -294.193)" fill="#3a506b"/><path d="M342.729,619.963c0,39.789,16.757,71.986,37.466,71.986" transform="translate(-161.464 -296.648)" fill="#3a506b"/><path d="M399.987,678.248c0-54.125,33.9-97.922,75.783-97.922" transform="translate(-181.256 -282.947)" fill="#3f3d56"/><path d="M381.1,728.415s8.332-.257,10.843-2.045,12.817-3.923,13.44-1.055,12.522,14.263,3.115,14.339-21.858-1.465-24.364-2.992S381.1,728.415,381.1,728.415Z" transform="translate(-174.727 -332.58)" fill="#a8a8a8"/><path d="M408.663,741.028c-9.407.076-21.858-1.465-24.364-2.992-1.909-1.163-2.669-5.334-2.924-7.259l-.278.011s.528,6.72,3.034,8.247,14.957,3.068,24.364,2.992c2.715-.022,3.653-.988,3.6-2.419C411.72,740.471,410.684,741.011,408.663,741.028Z" transform="translate(-174.727 -334.952)" opacity="0.2"/></g></svg>