<svg xmlns="http://www.w3.org/2000/svg" width="22" height="30" viewBox="0 0 22.198 31.333"><g transform="translate(-0.445)"><path d="M22.643,70.766,20.621,93.421l-9.09,2.52L2.465,93.424.445,70.766Z" transform="translate(0 -64.608)" fill="#e44d26"/><path d="M128,113.453l7.345-2.036,1.728-19.36H128v21.4Z" transform="translate(-116.456 -84.047)" fill="#f16529"/><path d="M50.954,126.774h3.931v-2.779H47.917l.067.746.683,7.658h6.219V129.62H51.208l-.254-2.846Z" transform="translate(-43.341 -113.206)" fill="#ebebeb"/><path d="M60.748,236.542h-2.79l.389,4.363,5.692,1.58.013,0v-2.891l-.012,0-3.095-.836-.2-2.216Z" transform="translate(-52.508 -215.96)" fill="#ebebeb"/><path d="M24.181,0h1.412V1.4h1.292V0H28.3V4.225H26.885V2.81H25.593V4.225H24.181V0Z" transform="translate(-21.67)" fill="#fff"/><path d="M79.786,1.4H78.543V0h3.9V1.4H81.2V4.225H79.786V1.4Z" transform="translate(-71.302)" fill="#fff"/><path d="M130.469,0h1.473l.906,1.485.9-1.485h1.473V4.225h-1.406V2.131l-.972,1.5h-.024l-.972-1.5V4.225h-1.382V0Z" transform="translate(-118.71)" fill="#fff"/><path d="M193.21,0h1.413V2.829h1.986v1.4h-3.4V0Z" transform="translate(-175.992)" fill="#fff"/><path d="M127.89,191.415h3.422l-.323,3.6-3.1.837v2.891l5.7-1.579.042-.47.653-7.316.068-.746h-6.46v2.779Z" transform="translate(-116.355 -172.222)" fill="#fff"/><path d="M127.89,126.767v.007H134.6l.056-.625.127-1.409.066-.746H127.89v2.772Z" transform="translate(-116.355 -113.206)" fill="#fff"/></g></svg>