<svg xmlns="http://www.w3.org/2000/svg" width="22" height="24" viewBox="0 0 22.198 24.665"><g transform="translate(-6 -4)"><path d="M28.2,12.2A17.456,17.456,0,0,1,17.1,28.664,17.456,17.456,0,0,1,6,12.2a32.469,32.469,0,0,1,.247-3.885A3.621,3.621,0,0,1,8.96,5.172,30.489,30.489,0,0,1,17.1,4a31.407,31.407,0,0,1,8.2,1.172,3.691,3.691,0,0,1,2.713,3.145C28.075,9.365,28.2,10.721,28.2,12.2Z" fill="#5d4037"/><path d="M17.1,5.85a30.635,30.635,0,0,1,7.708,1.11,1.854,1.854,0,0,1,1.357,1.6,35.041,35.041,0,0,1,.185,3.638A15.347,15.347,0,0,1,17.1,26.63,15.507,15.507,0,0,1,7.85,12.2a35.041,35.041,0,0,1,.185-3.638,1.776,1.776,0,0,1,1.357-1.6A30.635,30.635,0,0,1,17.1,5.85M17.1,4A31.407,31.407,0,0,0,8.9,5.172,3.627,3.627,0,0,0,6.247,8.316,33.38,33.38,0,0,0,6,12.2,17.456,17.456,0,0,0,17.1,28.664,17.456,17.456,0,0,0,28.2,12.2a32.469,32.469,0,0,0-.247-3.885,3.621,3.621,0,0,0-2.713-3.145A30.489,30.489,0,0,0,17.1,4Z" fill="#4caf50"/><path d="M23,28h1.233v4.933H23Z" transform="translate(-6.518 -9.201)" fill="#dcedc8"/><path d="M21.7,10A11.262,11.262,0,0,0,18,18.016a8.243,8.243,0,0,0,3.083,6.166l.617-1.85.617,1.85A8.243,8.243,0,0,0,25.4,18.016,11.262,11.262,0,0,0,21.7,10Z" transform="translate(-4.601 -2.3)" fill="#4caf50"/><path d="M21.7,10A11.262,11.262,0,0,0,18,18.016a8.243,8.243,0,0,0,3.083,6.166l.617-1.85Z" transform="translate(-4.601 -2.3)" fill="#81c784"/></g></svg>