<svg xmlns="http://www.w3.org/2000/svg" width="22" height="22" viewBox="0 0 20.895 20.895"><g transform="translate(-10.976 -13.476)"><path d="M31.864,23.923c-.479,3.043-1.41,3.933-3.059,5.977-1.649,1.732-4.021,4.625-7.382,4.463-3.043-.479-3.933-1.41-5.977-3.059-1.732-1.649-4.625-4.021-4.463-7.382.479-3.043,1.41-3.933,3.059-5.977,1.649-1.732,4.021-4.625,7.382-4.463,3.043.479,3.933,1.41,5.977,3.059C29.133,18.19,32.025,20.562,31.864,23.923Z" transform="translate(0)" fill="#3765af"/><g transform="translate(13.984 18.979)"><path d="M72,210.381c-.375-.109-.629-.016-.739.239l-.749,1.686-.734-1.686c-.109-.255-.364-.349-.739-.239a.3.3,0,0,0-.239.333v1.956h.494v-1.956l.775,1.7a.509.509,0,0,0,.91,0l.765-1.7v1.956h.494v-1.956A.306.306,0,0,0,72,210.381Z" transform="translate(-68.8 -205.598)" fill="#fff"/><path d="M144.668,225.685h-1.082c-.276-.005-.291-.146-.291-.2V224.41H142.8c.016.005,0,1.077.005,1.1,0,.244.312.468.806.468h1.056v.13c0,.047.036.208-.281.245h-1.566v.333h1.555c.25,0,.786-.094.786-.525V224.4h-.494Z" transform="translate(-138.95 -218.931)" fill="#fff"/><path d="M254.836,124.609a1.082,1.082,0,0,1-.109-.109,1.824,1.824,0,0,0-.39-.385c-.12-.083-.39-.2-.432-.338l-.01-.01a2.708,2.708,0,0,0,.265-.057c.13-.036.245-.026.385-.057.057-.016.12-.036.177-.052v-.036c-.068-.068-.12-.161-.187-.224a4.933,4.933,0,0,0-.629-.468,3.329,3.329,0,0,0-.39-.187c-.042-.026-.12-.036-.146-.068a1.292,1.292,0,0,1-.151-.291c-.109-.213-.213-.442-.317-.666a3.237,3.237,0,0,0-.2-.432,3.788,3.788,0,0,0-1.472-1.42,1.95,1.95,0,0,0-.484-.151c-.094,0-.187-.01-.281-.016-.057-.026-.12-.1-.177-.135-.213-.135-.775-.432-.936-.042-.1.245.151.494.239.614a2.1,2.1,0,0,1,.2.281c.026.068.036.135.057.2a4.306,4.306,0,0,0,.2.51,1.474,1.474,0,0,0,.146.239c.036.042.083.057.094.13a.98.98,0,0,0-.083.281A1.681,1.681,0,0,0,250.31,123c.057.094.2.307.4.224.172-.068.135-.281.177-.479.01-.042,0-.078.026-.1v.01c.052.1.1.213.151.317a2.094,2.094,0,0,0,.494.51c.094.068.161.187.281.229v-.01h-.01a.572.572,0,0,0-.083-.078,1.642,1.642,0,0,1-.2-.229,5.482,5.482,0,0,1-.427-.692c-.057-.12-.109-.244-.161-.364-.026-.042-.026-.109-.057-.135a.972.972,0,0,0-.177.255,2.289,2.289,0,0,0-.1.572c-.016,0-.01,0-.016.01-.12-.036-.161-.151-.213-.265a1.68,1.68,0,0,1-.036-1.014c.026-.078.146-.333.094-.411-.026-.068-.1-.109-.146-.172a1.014,1.014,0,0,1-.135-.245c-.094-.213-.135-.453-.239-.666a1.858,1.858,0,0,0-.187-.291,3.335,3.335,0,0,1-.213-.3c-.016-.042-.042-.109-.016-.151.01-.036.026-.042.052-.052.052-.042.187.01.239.036a1.937,1.937,0,0,1,.375.187c.052.036.109.109.177.13h.078c.12.026.255.01.375.042a2.421,2.421,0,0,1,.546.265,3.35,3.35,0,0,1,1.181,1.3c.042.083.068.172.1.255.078.187.177.375.255.562a2.277,2.277,0,0,0,.271.51c.057.078.281.12.39.161.078.036.2.068.265.1.13.078.255.172.385.255.047.047.245.14.255.218a1.822,1.822,0,0,0-.739.1c-.057.026-.146.026-.151.094.036.036.036.078.057.12a.838.838,0,0,0,.2.229c.078.057.161.12.245.177.146.094.317.146.458.239a2.948,2.948,0,0,1,.245.177.574.574,0,0,0,.12.1v-.01A1.245,1.245,0,0,1,254.836,124.609Z" transform="translate(-239.937 -119.27)" fill="#fff"/><path d="M270.6,137.216v.01h.01a1.915,1.915,0,0,0,.12.151,1.353,1.353,0,0,1,.083.177l.01-.01a.219.219,0,0,0,.078-.187c-.026-.026-.026-.052-.042-.078-.031-.036-.083-.052-.109-.078A.963.963,0,0,0,270.6,137.216Z" transform="translate(-260.102 -136.267)" fill="#fff"/><path d="M195.837,211.342c-.291.094-.427.239-.427.494v.271c0,.224.245.416.671.458h.707c.151.016.224.042.271.1a.1.1,0,0,1,.036.094v.291a.19.19,0,0,1-.068.12.307.307,0,0,1-.213.068H195.4v.343h1.436a1.159,1.159,0,0,0,.458-.094c.213-.1.317-.229.317-.411v-.364c0-.146-.12-.271-.349-.364a1.334,1.334,0,0,0-.427-.068h-.6c-.2,0-.3-.057-.323-.2v-.307c.026-.1.078-.13.255-.146h1.457V211.3h-1.389A1.236,1.236,0,0,0,195.837,211.342Z" transform="translate(-188.814 -206.512)" fill="#fff"/><path d="M297.7,212.9v-1.7h-.494l-.01,1.706q0,.507.765.562c.052,0,.094.01.146.01h1.3v-.333h-1.3C297.814,213.146,297.7,213.078,297.7,212.9Z" transform="translate(-285.318 -206.418)" fill="#fff"/><path d="M246.376,213.022v-1.176c0-.3-.2-.479-.619-.536a.687.687,0,0,0-.146-.01h-.947c-.042,0-.094.01-.135.01-.416.052-.629.239-.629.536v1.176c0,.271.151.442.489.531a1.236,1.236,0,0,0,.291.036h.525l.4-.026.39.359h.572l-.484-.442A.423.423,0,0,0,246.376,213.022Zm-.479-1.15v1.176a.266.266,0,0,1-.13.161l-.359-.323h-.572l.411.375h-.453c-.2,0-.323-.078-.349-.213,0-.016-.01-.036-.01-.052v-1.124c0-.151.14-.244.364-.244h.749c.2,0,.323.073.349.2Z" transform="translate(-234.791 -206.512)" fill="#fff"/><path d="M348.6,249.029l-.094-.229h-.1v.333h.068v-.255l.094.255h.052l.094-.255.01.255h.068V248.8h-.1Z" transform="translate(-333.855 -242.062)" fill="#fff"/><path d="M341.9,248.757h.1v.281h.068v-.281h.094V248.7H341.9Z" transform="translate(-327.693 -241.967)" fill="#fff"/></g></g></svg>