<svg xmlns="http://www.w3.org/2000/svg" width="22" height="25" viewBox="0 0 22.198 25.013"><path d="M11.1,25.013a2.015,2.015,0,0,1-.965-.253L7.078,22.945c-.46-.253-.23-.345-.092-.391a5.564,5.564,0,0,0,1.379-.621.211.211,0,0,1,.23.023l2.344,1.4a.292.292,0,0,0,.276,0l9.169-5.308a.264.264,0,0,0,.138-.253V7.2a.264.264,0,0,0-.138-.253L11.214,1.666a.292.292,0,0,0-.276,0L1.769,6.951a.288.288,0,0,0-.138.253V17.8a.288.288,0,0,0,.138.253l2.5,1.448c1.356.689,2.206-.115,2.206-.919V8.123a.279.279,0,0,1,.276-.276H7.928a.279.279,0,0,1,.276.276V18.579a2.549,2.549,0,0,1-2.712,2.872,3.942,3.942,0,0,1-2.114-.574L.965,19.5A1.939,1.939,0,0,1,0,17.82V7.227A1.939,1.939,0,0,1,.965,5.549L10.134.241a2.051,2.051,0,0,1,1.93,0l9.169,5.308A1.939,1.939,0,0,1,22.2,7.227V17.82a1.939,1.939,0,0,1-.965,1.677l-9.169,5.308a2.352,2.352,0,0,1-.965.207Zm2.826-7.284c-4.021,0-4.849-1.838-4.849-3.4a.279.279,0,0,1,.276-.276h1.195a.236.236,0,0,1,.253.23c.184,1.218.712,1.815,3.148,1.815,1.93,0,2.758-.437,2.758-1.471,0-.6-.23-1.034-3.24-1.333-2.5-.253-4.067-.8-4.067-2.8,0-1.861,1.563-2.964,4.182-2.964,2.941,0,4.389,1.011,4.573,3.217a.371.371,0,0,1-.069.207.284.284,0,0,1-.184.092H16.706a.269.269,0,0,1-.253-.207c-.276-1.264-.988-1.677-2.872-1.677-2.114,0-2.367.735-2.367,1.287,0,.666.3.873,3.148,1.241,2.827.368,4.159.9,4.159,2.872-.023,2.022-1.677,3.171-4.6,3.171Z" transform="translate(0)" fill="#539e43"/></svg>