<svg xmlns="http://www.w3.org/2000/svg" width="22" height="22" viewBox="0 0 18 18.103"><path d="M12.472,12.643a1.369,1.369,0,0,0-.137-2.718h-.046a1.328,1.328,0,0,0-1.237,1.407,1.434,1.434,0,0,0,.366.9,8.429,8.429,0,0,1-3.757,3.81,5.9,5.9,0,0,1-3.734.752,3.155,3.155,0,0,1-2.336-1.432A3.744,3.744,0,0,1,1.409,11.6,5.63,5.63,0,0,1,2.966,9.658c-.092-.315-.229-.849-.3-1.238C-.653,10.969-.309,14.414.7,16.04a4.65,4.65,0,0,0,3.986,1.966,5.33,5.33,0,0,0,1.374-.17A8.879,8.879,0,0,0,12.472,12.643ZM16.5,9.634A9.077,9.077,0,0,0,9.265,6.285H8.9a1.253,1.253,0,0,0-1.122-.728H7.731A1.328,1.328,0,0,0,6.494,6.965a1.323,1.323,0,0,0,1.283,1.31h.046A1.3,1.3,0,0,0,8.945,7.45h.412a8.387,8.387,0,0,1,4.879,1.577,6.431,6.431,0,0,1,2.428,3.106A3.545,3.545,0,0,1,16.618,15a3.343,3.343,0,0,1-3.138,1.99,5.584,5.584,0,0,1-2.245-.51c-.252.243-.71.631-1.031.874a6.749,6.749,0,0,0,2.955.752A4.926,4.926,0,0,0,17.6,15.531,5.731,5.731,0,0,0,16.5,9.634ZM4.867,13.056a1.323,1.323,0,0,0,1.283,1.31H6.2a1.363,1.363,0,0,0-.046-2.718H6.1a.371.371,0,0,0-.16.024A9.317,9.317,0,0,1,4.753,6.285,6.739,6.739,0,0,1,6.1,2.524,3.878,3.878,0,0,1,8.922,1.165c2.428-.049,3.459,3.155,3.528,4.441.3.073.8.243,1.145.364C13.32,2.038,11.029,0,8.83,0A5.241,5.241,0,0,0,4.111,3.907a10.438,10.438,0,0,0,.916,8.445A1.141,1.141,0,0,0,4.867,13.056Z" transform="translate(0)" fill="#764abc"/></svg>