<svg xmlns="http://www.w3.org/2000/svg" width="22" height="13" viewBox="0 0 133.826 80.028"><g transform="translate(-0.566 -0.085)"><path d="M43.285,29.149a13.467,13.467,0,0,0,.49,3.961,23.819,23.819,0,0,0,1.424,3.2,1.936,1.936,0,0,1,.312,1.024,1.762,1.762,0,0,1-.846,1.335l-2.8,1.869a2.134,2.134,0,0,1-1.157.4,2.048,2.048,0,0,1-1.335-.623,13.771,13.771,0,0,1-1.6-2.092c-.445-.757-.89-1.6-1.38-2.626A16.442,16.442,0,0,1,23.3,41.745c-3.739,0-6.721-1.068-8.9-3.2A11.434,11.434,0,0,1,11.1,29.995a11.458,11.458,0,0,1,4.05-9.169c2.715-2.315,6.32-3.472,10.9-3.472a35.235,35.235,0,0,1,4.718.356c1.647.223,3.338.579,5.119.979V15.44c0-3.383-.712-5.742-2.092-7.121-1.424-1.38-3.828-2.047-7.255-2.047a20.252,20.252,0,0,0-4.807.579,35.469,35.469,0,0,0-4.807,1.513,12.772,12.772,0,0,1-1.558.579,2.729,2.729,0,0,1-.712.134c-.623,0-.935-.445-.935-1.38V5.515a2.817,2.817,0,0,1,.312-1.558,3.333,3.333,0,0,1,1.246-.935,25.625,25.625,0,0,1,5.608-2A26.985,26.985,0,0,1,27.84.174c5.3,0,9.169,1.2,11.661,3.605,2.448,2.4,3.694,6.053,3.694,10.949V29.149ZM25.214,35.915a14.424,14.424,0,0,0,4.584-.8,9.919,9.919,0,0,0,4.228-2.849,7.064,7.064,0,0,0,1.513-2.849,15.979,15.979,0,0,0,.445-3.872V23.675a37.159,37.159,0,0,0-4.095-.757,33.535,33.535,0,0,0-4.184-.267c-2.982,0-5.163.579-6.632,1.78a6.2,6.2,0,0,0-2.181,5.119,6.213,6.213,0,0,0,1.647,4.718A6.172,6.172,0,0,0,25.214,35.915Zm35.741,4.807a2.484,2.484,0,0,1-1.691-.445,3.626,3.626,0,0,1-.935-1.736L47.869,4.135a7.8,7.8,0,0,1-.4-1.78.976.976,0,0,1,1.068-1.113H52.9a2.467,2.467,0,0,1,1.736.445,3.641,3.641,0,0,1,.89,1.736L63,32.888,69.946,3.423a3.123,3.123,0,0,1,.846-1.736,3.062,3.062,0,0,1,1.781-.445h3.56a2.678,2.678,0,0,1,1.781.445,3,3,0,0,1,.845,1.736l7.033,29.821,7.7-29.821a3.816,3.816,0,0,1,.89-1.736,2.9,2.9,0,0,1,1.736-.445h4.139a.99.99,0,0,1,1.113,1.113,4.427,4.427,0,0,1-.089.712,6.342,6.342,0,0,1-.311,1.113L90.242,38.585a3.411,3.411,0,0,1-.935,1.736,2.847,2.847,0,0,1-1.691.445H83.788a2.68,2.68,0,0,1-1.781-.445,3.155,3.155,0,0,1-.845-1.78l-6.9-28.708L67.408,38.5a3.471,3.471,0,0,1-.845,1.78,2.759,2.759,0,0,1-1.781.445Zm57.194,1.2a29.451,29.451,0,0,1-6.854-.8,20.242,20.242,0,0,1-5.118-1.78A3.2,3.2,0,0,1,104.8,38.1a3.143,3.143,0,0,1-.267-1.246v-2.27c0-.935.356-1.38,1.024-1.38a2.524,2.524,0,0,1,.8.134c.267.089.667.267,1.113.445a24.208,24.208,0,0,0,4.9,1.558,26.734,26.734,0,0,0,5.3.534,12.009,12.009,0,0,0,6.5-1.469,4.793,4.793,0,0,0,2.315-4.228,4.334,4.334,0,0,0-1.2-3.116,11.168,11.168,0,0,0-4.5-2.314l-6.454-2c-3.249-1.024-5.652-2.537-7.122-4.54a10.605,10.605,0,0,1-2.225-6.454,9.9,9.9,0,0,1,1.2-4.94,11.439,11.439,0,0,1,3.2-3.65A14.125,14.125,0,0,1,114.01.841a19.4,19.4,0,0,1,5.608-.757A22.345,22.345,0,0,1,122.6.263c1.024.134,1.959.312,2.893.49.89.223,1.736.445,2.537.712a9.714,9.714,0,0,1,1.869.8,3.849,3.849,0,0,1,1.335,1.113,2.4,2.4,0,0,1,.4,1.469V6.939c0,.935-.356,1.424-1.024,1.424a4.63,4.63,0,0,1-1.691-.534,20.363,20.363,0,0,0-8.545-1.736,11.49,11.49,0,0,0-5.92,1.246,4.3,4.3,0,0,0-2.092,3.961,4.2,4.2,0,0,0,1.335,3.16,13.3,13.3,0,0,0,4.9,2.448l6.32,2c3.2,1.024,5.519,2.448,6.9,4.273a10.071,10.071,0,0,1,2.047,6.231,11.442,11.442,0,0,1-1.157,5.163,11.963,11.963,0,0,1-3.249,3.917,14.343,14.343,0,0,1-4.94,2.493A21.168,21.168,0,0,1,118.149,41.923Z" transform="translate(-5.005 0)" fill="#fff"/><path d="M121.556,108.682c-14.643,10.816-35.919,16.558-54.212,16.558A98.076,98.076,0,0,1,1.159,100c-1.38-1.246-.134-2.937,1.513-1.958A133.477,133.477,0,0,0,68.9,115.625,132.159,132.159,0,0,0,119.42,105.3C121.868,104.187,123.96,106.9,121.556,108.682Zm6.1-6.944c-1.87-2.4-12.374-1.157-17.136-.579-1.425.178-1.647-1.068-.356-2,8.367-5.875,22.121-4.184,23.723-2.226,1.6,2-.445,15.756-8.279,22.344-1.2,1.024-2.359.49-1.825-.846C125.562,114.023,129.523,104.1,127.654,101.738Z" transform="translate(0 -45.127)" fill="#f90"/></g></svg>