<svg xmlns="http://www.w3.org/2000/svg" width="22.198" height="22.198" viewBox="0 0 22.198 22.198"><g transform="translate(-6 -6)"><path d="M28.2,25.115A3.083,3.083,0,0,1,25.115,28.2H9.083A3.083,3.083,0,0,1,6,25.115V9.083A3.083,3.083,0,0,1,9.083,6H25.115A3.083,3.083,0,0,1,28.2,9.083Z" fill="#673ab7"/><path d="M26.118,20.386a3.039,3.039,0,0,0-1.727-1.141,2.776,2.776,0,0,0,1.2-1.079,3.627,3.627,0,0,0,.512-1.961,3.525,3.525,0,0,0-1.443-3.04A6.067,6.067,0,0,0,20.765,12H15V26.8h6.431a6.25,6.25,0,0,0,3.952-1.11,3.989,3.989,0,0,0,1.332-3.268A3.381,3.381,0,0,0,26.118,20.386ZM18.7,14.466H21.32a1.7,1.7,0,0,1,0,3.391H18.7Zm3.083,9.866H18.7v-3.7h3.083a1.85,1.85,0,0,1,0,3.7Z" transform="translate(-3.45 -2.3)" fill="#fff"/></g></svg>