<svg xmlns="http://www.w3.org/2000/svg" width="22" height="30" viewBox="0 0 21.198 29.921"><g transform="translate(-0.445)"><path d="M11.031,94.807,2.374,92.4.445,70.766h21.2L19.712,92.4l-8.681,2.407Z" transform="translate(0 -64.886)" fill="#264de4"/><path d="M135.015,110.545l1.65-18.487H128v20.432l7.015-1.945Z" transform="translate(-116.956 -84.408)" fill="#2965f1"/><path d="M53.669,188.636l.238,2.654h5.939v-2.654Z" transform="translate(-48.801 -172.962)" fill="#ebebeb"/><path d="M47.917,123.995l.241,2.654h6.413v-2.654Z" transform="translate(-43.527 -113.692)" fill="#ebebeb"/><path d="M63.778,239.453l-.012,0-2.956-.8-.189-2.116H57.958l.372,4.167,5.436,1.509.012,0v-2.761Z" transform="translate(-52.734 -216.887)" fill="#ebebeb"/><path d="M60.484,0H63.7V1.344h-1.87V2.688H63.7V4.032H60.484V0Z" transform="translate(-55.05)" fill="#fff"/><path d="M106.9,0h3.214V1.169h-1.87V1.4h1.87V4.091H106.9V2.864h1.87V2.63H106.9V0Z" transform="translate(-97.61)" fill="#fff"/><path d="M153.319,0h3.214V1.169h-1.87V1.4h1.87V4.091h-3.214V2.864h1.87V2.63h-1.87V0Z" transform="translate(-140.171)" fill="#fff"/><path d="M134.059,129.366l.479-5.371H127.89v2.654h3.739l-.241,2.717h-3.5v2.654h3.268l-.308,3.442-2.96.8v2.761l5.44-1.508.04-.448.624-6.987.065-.713Z" transform="translate(-116.855 -113.692)" fill="#fff"/></g></svg>