<svg xmlns="http://www.w3.org/2000/svg" width="21" height="16" viewBox="0 0 25.79 20.263"><g transform="translate(0 -59.013)"><g transform="translate(0 59.013)"><path d="M39.639,331.4a2.2,2.2,0,0,0,1.509-.569l-7.307-7.307-.506.364q-.82.6-1.331.943a8.2,8.2,0,0,1-1.36.691,4.145,4.145,0,0,1-1.583.352h-.029a4.144,4.144,0,0,1-1.583-.352,8.175,8.175,0,0,1-1.36-.691q-.511-.338-1.331-.942c-.152-.112-.322-.234-.5-.366l-7.308,7.309a2.2,2.2,0,0,0,1.509.569Z" transform="translate(-16.153 -311.14)" fill="#fff"/><path d="M1.454,199.807A7.63,7.63,0,0,1,0,198.555v11.117l6.44-6.44Q4.507,201.883,1.454,199.807Z" transform="translate(0 -192.021)" fill="#fff"/><path d="M418.307,199.807q-2.94,1.99-5,3.427l6.437,6.438V198.555A7.942,7.942,0,0,1,418.307,199.807Z" transform="translate(-393.957 -192.021)" fill="#fff"/><path d="M23.493,59.013H2.309A2.055,2.055,0,0,0,.6,59.761a2.9,2.9,0,0,0-.6,1.871A3.363,3.363,0,0,0,.8,63.6a7.14,7.14,0,0,0,1.684,1.662q.489.346,2.95,2.051c.886.614,1.656,1.149,2.318,1.61.564.393,1.051.734,1.453,1.016l.215.153.4.286q.468.338.777.547t.748.468a4.366,4.366,0,0,0,.828.389,2.29,2.29,0,0,0,.72.13h.029a2.291,2.291,0,0,0,.72-.13,4.356,4.356,0,0,0,.828-.389q.439-.259.749-.468t.777-.547l.4-.286.215-.153,1.456-1.012,5.279-3.665a6.845,6.845,0,0,0,1.756-1.77,3.808,3.808,0,0,0,.7-2.173,2.322,2.322,0,0,0-2.3-2.3Z" transform="translate(-0.006 -59.013)" fill="#fff"/></g></g></svg>