<svg xmlns="http://www.w3.org/2000/svg" width="20" height="12" viewBox="0 0 42.201 25.156"><g transform="translate(0 -98.725)"><path d="M21.1,98.725c-8.063,0-15.375,4.411-20.77,11.577a1.671,1.671,0,0,0,0,1.994c5.4,7.174,12.707,11.585,20.77,11.585s15.375-4.411,20.77-11.577a1.67,1.67,0,0,0,0-1.994C36.476,103.136,29.164,98.725,21.1,98.725Zm.578,21.435a8.876,8.876,0,1,1,8.279-8.279A8.881,8.881,0,0,1,21.679,120.16Zm-.268-4.092a4.779,4.779,0,1,1,4.463-4.463A4.772,4.772,0,0,1,21.411,116.068Z" transform="translate(0)" fill="#fff"/></g></svg>