<svg xmlns="http://www.w3.org/2000/svg" width="16" height="16" viewBox="0 0 20.408 20.408"><g transform="translate(-1 -30)"><g transform="translate(1 30)"><path d="M19.039,10.575a10.291,10.291,0,0,0-3.713-3.807,9.794,9.794,0,0,0-5.122-1.4,9.8,9.8,0,0,0-5.122,1.4,10.29,10.29,0,0,0-3.714,3.807A10.429,10.429,0,0,0,0,15.825a10.338,10.338,0,0,0,1.946,6.149,10.013,10.013,0,0,0,5.029,3.779.583.583,0,0,0,.531-.1.539.539,0,0,0,.173-.408q0-.041-.007-.735T7.666,23.3l-.306.054a3.8,3.8,0,0,1-.737.048,5.485,5.485,0,0,1-.923-.1,2.039,2.039,0,0,1-.89-.408,1.727,1.727,0,0,1-.584-.837l-.133-.313a3.419,3.419,0,0,0-.418-.695,1.615,1.615,0,0,0-.578-.517L3,20.469a.985.985,0,0,1-.173-.164.75.75,0,0,1-.12-.191q-.04-.1.066-.157a.843.843,0,0,1,.385-.061l.266.041a1.919,1.919,0,0,1,.658.327,2.178,2.178,0,0,1,.644.708,2.382,2.382,0,0,0,.737.851,1.538,1.538,0,0,0,.87.293,3.689,3.689,0,0,0,.757-.068,2.6,2.6,0,0,0,.6-.2,2.229,2.229,0,0,1,.651-1.4A8.9,8.9,0,0,1,6.982,20.2a5.349,5.349,0,0,1-1.249-.531,3.6,3.6,0,0,1-1.07-.912,4.428,4.428,0,0,1-.7-1.43,6.959,6.959,0,0,1-.272-2.043,4.029,4.029,0,0,1,1.05-2.806A3.746,3.746,0,0,1,4.836,9.7a1.821,1.821,0,0,1,1.143.184,7.9,7.9,0,0,1,1.109.524q.352.218.565.368a9.369,9.369,0,0,1,5.1,0l.5-.327a7.076,7.076,0,0,1,1.222-.6,1.7,1.7,0,0,1,1.077-.15,3.71,3.71,0,0,1,.106,2.778,4.029,4.029,0,0,1,1.05,2.806,7.037,7.037,0,0,1-.272,2.05,4.255,4.255,0,0,1-.7,1.43,3.736,3.736,0,0,1-1.076.906,5.359,5.359,0,0,1-1.249.531,8.887,8.887,0,0,1-1.362.245,2.459,2.459,0,0,1,.691,1.934v2.873a.549.549,0,0,0,.166.408.566.566,0,0,0,.525.1,10.012,10.012,0,0,0,5.029-3.779,10.34,10.34,0,0,0,1.946-6.149A10.438,10.438,0,0,0,19.039,10.575Z" transform="translate(0 -5.365)" fill="#fff"/></g></g></svg>