<svg xmlns="http://www.w3.org/2000/svg" width="22" height="16" viewBox="0 0 81.46 62.881"><g transform="translate(-9.991 -121.76)"><g transform="translate(9.991 121.76)"><path d="M14.368-389.061a6.106,6.106,0,0,0-3.389,2.609c-1.05,1.639-.987-.207-.987,28.67,0,23.467.032,26.283.254,27.063a6.414,6.414,0,0,0,3.389,3.946l.891.414H86.917l.891-.414a6.414,6.414,0,0,0,3.389-3.946c.223-.78.254-3.6.254-27.063s-.032-26.284-.254-27.063a6.417,6.417,0,0,0-3.389-3.946l-.891-.414-35.957-.032C22.275-389.252,14.877-389.22,14.368-389.061Zm15.99,31.279v28.495l-7.589-.047-7.6-.047-.6-.366a4.111,4.111,0,0,1-1.034-1.114l-.43-.748v-52.344l.43-.731a2.877,2.877,0,0,1,1.7-1.416c.223-.08,3.723-.143,7.78-.143l7.351-.016v28.478Zm19.569,0V-329.3H31.949v-56.958H49.927Zm19.57,0V-329.3H51.519v-56.958H69.5v28.479ZM86.7-385.9a3.24,3.24,0,0,1,1.178,1.145l.477.764v52.376l-.43.748a4.111,4.111,0,0,1-1.034,1.114l-.6.366-7.589.047-7.6.047v-56.973H86Z" transform="translate(-9.991 389.24)" fill="#fff"/><path d="M82.74-307.87v3.421H93.4v-6.841H82.74Z" transform="translate(-76.693 317.77)" fill="#f0544f"/><path d="M82.74-185.271v3.5l5.3-.032,5.282-.047v-6.841l-5.282-.047-5.3-.032Z" transform="translate(-76.693 205.434)" fill="#5bc0be"/><path d="M82.74-60.959v3.421H93.4V-64.38H82.74Z" transform="translate(-76.693 91.383)" fill="#5bc0be"/><path d="M318.17-307.87v3.421h10.66v-6.841H318.17Z" transform="translate(-292.553 317.77)" fill="#5bc0be"/><path d="M318.523-188.583c-.032.111-.047,1.671-.032,3.453l.047,3.262,5.3.047,5.283.032v-7h-5.25C319.748-188.79,318.586-188.743,318.523-188.583Z" transform="translate(-292.842 205.452)" fill="#5bc0be"/><path d="M318.17-60.959v3.421h10.66V-64.38H318.17Z" transform="translate(-292.553 91.383)" fill="#51e81c"/><path d="M555.51-307.87v3.421h10.66v-6.841H555.51Z" transform="translate(-510.165 317.77)" fill="#51e81c"/><path d="M555.51-185.271v3.5l5.3-.032,5.282-.047v-6.841l-5.282-.047-5.3-.032Z" transform="translate(-510.165 205.434)" fill="#51e81c"/><path d="M790.972-307.917l.047,3.389,5.3.047,5.282.032v-6.841H790.94Z" transform="translate(-726.025 317.77)" fill="#f0544f"/></g></g></svg>