<svg xmlns="http://www.w3.org/2000/svg" width="22" height="23" viewBox="0 0 22.198 22.886"><g transform="translate(-0.297 -0.364)"><path d="M22.437,14.073a1.126,1.126,0,0,0-.935-.753,2.141,2.141,0,0,0-.746.041,6.705,6.705,0,0,1-1.15.151A22.17,22.17,0,0,0,21.953,7.93c.779-3.015.363-4.389-.124-5.01A6.735,6.735,0,0,0,16.4.365a9.625,9.625,0,0,0-2.823.4A10.519,10.519,0,0,0,11.926.609a5.366,5.366,0,0,0-2.875.708A13.124,13.124,0,0,0,7.02.808a6.288,6.288,0,0,0-4.756.755C.847,2.564.19,4.3.312,6.733a29.706,29.706,0,0,0,1.149,5.344A18.456,18.456,0,0,0,2.7,15.234a3.911,3.911,0,0,0,2,2.084A1.964,1.964,0,0,0,6.641,16.9a1.7,1.7,0,0,0,.409.352,2.72,2.72,0,0,0,.771.325,4.143,4.143,0,0,0,2.7-.161c0,.14.009.274.012.39.005.187.01.371.017.543a9.514,9.514,0,0,0,.36,2.7c.013.035.03.088.048.144a3.249,3.249,0,0,0,.81,1.426,2.415,2.415,0,0,0,1.708.635,3.84,3.84,0,0,0,.8-.089A3.754,3.754,0,0,0,16.8,21.7c.663-.944.985-2.366,1.044-4.606.008-.063.015-.124.021-.181l.014-.118.156.014.04,0a6.181,6.181,0,0,0,2.585-.448c.516-.239,2.169-1.112,1.78-2.29" transform="translate(0 0)"/><path d="M31.041,24.4c-2.585.533-2.763-.342-2.763-.342,2.729-4.05,3.87-9.191,2.886-10.449-2.686-3.432-7.336-1.809-7.413-1.767l-.025,0A9.219,9.219,0,0,0,22,11.663a4.26,4.26,0,0,0-2.73.817s-8.295-3.417-7.909,4.3c.082,1.641,2.352,12.418,5.06,9.163.99-1.19,1.946-2.2,1.946-2.2a2.511,2.511,0,0,0,1.64.419l.046-.039a1.806,1.806,0,0,0,.019.463c-.7.779-.493.916-1.887,1.2-1.411.291-.582.809-.041.944a2.867,2.867,0,0,0,3.2-1.039l-.041.164a4.66,4.66,0,0,1,.433,2.516A6.929,6.929,0,0,0,21.9,30.8c.215.586.43,1.9,2.263,1.511a2.7,2.7,0,0,0,2.436-2.6c.078-1.009.256-.86.267-1.762l.142-.427c.164-1.368.026-1.809.97-1.6l.229.02a5.227,5.227,0,0,0,2.137-.36c1.149-.533,1.83-1.423.7-1.19h0" transform="translate(-10.091 -10.093)" fill="#336791"/><path d="M101.4,81.39a.8.8,0,0,0-.551.078.2.2,0,0,0-.084.134.393.393,0,0,0,.1.257.72.72,0,0,0,.457.285.532.532,0,0,0,.073.005.593.593,0,0,0,.561-.382c.028-.2-.266-.338-.552-.378" transform="translate(-91.73 -73.971)" fill="#fff"/><path d="M185.49,79.714h0c-.022-.159-.305-.2-.574-.167s-.529.159-.507.318a.545.545,0,0,0,.507.336.488.488,0,0,0,.068,0,.652.652,0,0,0,.368-.2.405.405,0,0,0,.138-.28" transform="translate(-168.107 -72.288)" fill="#fff"/><path d="M28.344,20.636c-.1-.3-.416-.394-.943-.285-1.565.323-2.125.1-2.309-.036a21.519,21.519,0,0,0,2.757-6.183,11.748,11.748,0,0,0,.409-2.659,2.872,2.872,0,0,0-.416-1.8A6.116,6.116,0,0,0,22.9,7.367a8.471,8.471,0,0,0-2.858.451,7.124,7.124,0,0,0-1.608-.207,4.647,4.647,0,0,0-2.756.76,12.307,12.307,0,0,0-2.239-.587,5.7,5.7,0,0,0-4.285.658c-1.228.87-1.794,2.424-1.684,4.621a29,29,0,0,0,1.122,5.189c.875,2.865,1.825,4.487,2.826,4.821a1.266,1.266,0,0,0,.4.066,1.675,1.675,0,0,0,1.278-.724c.773-.93,1.5-1.71,1.761-1.993a2.837,2.837,0,0,0,1.267.341c0,.012,0,.023,0,.035-.089.105-.161.2-.223.276-.306.389-.37.47-1.355.672-.28.058-1.025.211-1.036.733-.012.57.88.81.982.835a4.2,4.2,0,0,0,1.021.132,2.97,2.97,0,0,0,2.044-.763,19.35,19.35,0,0,0,.312,4.646,2.333,2.333,0,0,0,2.231,1.72,3.578,3.578,0,0,0,.75-.085,2.83,2.83,0,0,0,2.579-2.625c.145-.838.393-2.84.51-3.914a3.154,3.154,0,0,0,.907.112,5.4,5.4,0,0,0,2.059-.392c.582-.27,1.631-.933,1.441-1.509ZM24.511,13.38a6.513,6.513,0,0,1-.1.905,8.359,8.359,0,0,0-.114,1.063,8.056,8.056,0,0,0,.084,1.2A4.28,4.28,0,0,1,24.2,18.99a3.169,3.169,0,0,1-.169-.348c-.048-.115-.151-.3-.294-.557-.556-1-1.859-3.333-1.192-4.286.2-.284.7-.575,1.968-.418Zm-1.534-5.37a5.409,5.409,0,0,1,4.36,2.062c.8,1.018-.081,5.65-2.62,9.645l-.077-.1-.032-.04a4.515,4.515,0,0,0,.414-3.106,7.461,7.461,0,0,1-.08-1.1,7.822,7.822,0,0,1,.107-.986,6.224,6.224,0,0,0,.1-1.22.506.506,0,0,0,.011-.172A6.85,6.85,0,0,0,23.6,10.051a7.039,7.039,0,0,0-2.484-1.867,8.373,8.373,0,0,1,1.864-.175ZM12.6,22c-.513.617-.867.5-.983.46-.759-.253-1.639-1.857-2.416-4.4a28.735,28.735,0,0,1-1.1-5.034c-.1-1.962.378-3.33,1.414-4.065,1.687-1.2,4.46-.48,5.574-.117l-.049.047c-1.828,1.847-1.785,5-1.781,5.194,0,.074.006.18.015.325a13.059,13.059,0,0,1-.066,2.637,3.334,3.334,0,0,0,.879,2.791q.109.114.228.215c-.313.336-.994,1.077-1.719,1.949ZM14.555,19.4a2.7,2.7,0,0,1-.707-2.259,13.648,13.648,0,0,0,.071-2.763c0-.077-.009-.145-.011-.2a3.518,3.518,0,0,1,2.388-.7.971.971,0,0,1,.75.838,5.855,5.855,0,0,1-.3,4.279c-.076.169-.148.328-.209.493l-.047.127a8.353,8.353,0,0,0-.3.906,2.28,2.28,0,0,1-1.636-.725Zm.093,3.294a1.416,1.416,0,0,1-.427-.184,2.078,2.078,0,0,1,.455-.136c1.159-.239,1.338-.407,1.729-.9.09-.114.191-.243.332-.4h0c.21-.235.305-.195.479-.123a.678.678,0,0,1,.334.429.478.478,0,0,1-.041.4,2.534,2.534,0,0,1-2.861.915Zm6.067,5.646a1.727,1.727,0,0,1-2.251-1.247,25.443,25.443,0,0,1-.244-5.6.32.32,0,0,0-.014-.1,1.347,1.347,0,0,0-.04-.188,1.3,1.3,0,0,0-.7-.845.993.993,0,0,0-.648-.078,7.834,7.834,0,0,1,.279-.836l.048-.128c.054-.145.121-.294.192-.453a6.478,6.478,0,0,0,.34-4.677,1.67,1.67,0,0,0-2.017-1.364,4.654,4.654,0,0,0-1.544.481c-.064.032-.122.064-.177.094A6.738,6.738,0,0,1,15.5,9.344,3.85,3.85,0,0,1,18.42,8.252a6.185,6.185,0,0,1,4.725,2.258,7.173,7.173,0,0,1,1.293,2.217c-1.2-.122-2.009.115-2.421.7-.9,1.282.491,3.77,1.157,4.966.122.219.228.409.261.489a4.44,4.44,0,0,0,.7,1.134c.063.079.124.155.17.221-.362.1-1.013.346-.953,1.551-.048.6-.388,3.437-.56,4.438a2.195,2.195,0,0,1-2.082,2.108Zm5.92-6.774a4.669,4.669,0,0,1-1.579.328A1.979,1.979,0,0,1,24,21.756c-.037-.751.243-.83.539-.913.046-.013.092-.026.136-.041a1.106,1.106,0,0,0,.09.066,3.918,3.918,0,0,0,2.77.11l.014,0a3.543,3.543,0,0,1-.912.589Z" transform="translate(-6.534 -6.394)" fill="#fff"/></g></svg>