<svg xmlns="http://www.w3.org/2000/svg" width="22" height="23" viewBox="0 0 18 16.015"><g transform="translate(0 -167.25)"><path d="M14.8,5.191q-.28-.1-.579-.183.049-.2.09-.4c.439-2.129.152-3.844-.828-4.409-.939-.542-2.475.023-4.026,1.373q-.224.195-.448.411-.149-.143-.3-.275C7.085.269,5.455-.339,4.477.227,3.539.77,3.261,2.383,3.656,4.4q.057.292.133.6c-.231.065-.453.135-.666.209C1.217,5.871,0,6.912,0,7.992c0,1.116,1.307,2.234,3.291,2.913q.235.08.487.152-.082.328-.141.643c-.376,1.983-.082,3.557.853,4.1.966.557,2.588-.016,4.168-1.4q.187-.164.376-.346.244.235.487.444c1.53,1.316,3.041,1.848,3.975,1.307.965-.559,1.279-2.25.872-4.308q-.047-.236-.108-.481.171-.051.335-.1C16.657,10.228,18,9.123,18,7.992c0-1.084-1.256-2.132-3.2-2.8Zm-.448,4.991q-.148.049-.3.095A18.039,18.039,0,0,0,13.138,8a18.033,18.033,0,0,0,.876-2.247q.276.08.535.169c1.666.573,2.682,1.421,2.682,2.074,0,.7-1.1,1.6-2.879,2.19Zm-.739,1.465a6.513,6.513,0,0,1,.087,2.376,1.589,1.589,0,0,1-.589,1.117c-.567.328-1.78-.1-3.089-1.224q-.225-.194-.453-.413a18.055,18.055,0,0,0,1.509-1.916,17.947,17.947,0,0,0,2.438-.376q.055.222.1.435ZM6.137,15.083a1.589,1.589,0,0,1-1.262.047c-.568-.327-.8-1.592-.482-3.287q.055-.291.131-.6a18.086,18.086,0,0,0,2.426.351,18.722,18.722,0,0,0,1.545,1.909q-.172.166-.343.316a6.513,6.513,0,0,1-2.015,1.261Zm-2.6-4.906a6.513,6.513,0,0,1-2.1-1.115,1.589,1.589,0,0,1-.672-1.07c0-.655.977-1.491,2.607-2.06.2-.069.4-.134.62-.195a18.432,18.432,0,0,0,.877,2.273,18.734,18.734,0,0,0-.888,2.306q-.23-.066-.444-.139Zm.87-5.924C4.072,2.524,4.3,1.22,4.862.893,5.464.544,6.8,1.041,8.2,2.287q.135.119.27.249a18.424,18.424,0,0,0-1.533,1.9,18.793,18.793,0,0,0-2.4.373q-.07-.283-.124-.555ZM12.175,6.17q-.267-.461-.547-.9c.574.073,1.125.169,1.641.287a16.421,16.421,0,0,1-.576,1.55q-.245-.465-.518-.937ZM9.009,3.086a16.447,16.447,0,0,1,1.059,1.279Q9.54,4.34,9,4.34t-1.06.025c.35-.461.708-.89,1.068-1.278ZM5.822,6.176q-.267.463-.508.931C5.09,6.575,4.9,6.053,4.742,5.549c.514-.115,1.061-.209,1.632-.28q-.284.442-.552.907Zm.568,4.6A16.365,16.365,0,0,1,4.731,10.5c.159-.513.355-1.047.583-1.589q.242.467.51.931h0q.274.472.565.924Zm2.64,2.182c-.365-.393-.728-.828-1.083-1.3q.517.02,1.053.02t1.087-.024a16.359,16.359,0,0,1-1.057,1.3ZM12.7,8.887a16.3,16.3,0,0,1,.6,1.583,16.313,16.313,0,0,1-1.679.286q.28-.444.553-.916t.522-.954Zm-1.188.57c-.281.488-.57.954-.864,1.393-.534.038-1.086.058-1.648.058s-1.105-.017-1.63-.051c-.305-.445-.6-.913-.88-1.4h0c-.279-.482-.535-.967-.768-1.45.232-.484.488-.97.766-1.451h0c.278-.482.571-.947.873-1.389C7.9,5.13,8.445,5.109,9,5.109H9c.557,0,1.107.021,1.642.062.3.439.588.9.867,1.385s.541.971.776,1.444c-.234.482-.492.97-.773,1.457ZM13.1.87c.6.348.837,1.749.458,3.588q-.036.176-.081.358a18.42,18.42,0,0,0-2.407-.38,18.058,18.058,0,0,0-1.522-1.9q.207-.2.414-.38C11.29,1,12.532.544,13.1.87ZM9,6.385A1.607,1.607,0,1,1,7.393,7.992,1.607,1.607,0,0,1,9,6.385Z" transform="translate(0 167.25)" fill="#00d8ff"/></g></svg>