<svg xmlns="http://www.w3.org/2000/svg" width="22" height="19" viewBox="0 0 22.198 18.954"><g transform="translate(0 -0.583)"><path d="M21.328,111.992c-1.185.617-7.321,3.141-8.628,3.822a2.917,2.917,0,0,1-3.064.181C8.6,115.5,2.073,112.863.9,112.3c-.588-.281-.9-.518-.9-.742v-2.244s8.5-1.851,9.875-2.343a3.482,3.482,0,0,1,3.017-.082c1.168.428,8.152,1.688,9.307,2.111,0,0,0,2,0,2.212s-.266.465-.869.779" transform="translate(0 -96.809)" fill="#912626"/><path d="M21.328,90.845c-1.185.617-7.321,3.14-8.628,3.822a2.916,2.916,0,0,1-3.064.181C8.6,94.355,2.074,91.716.9,91.154s-1.2-.949-.045-1.4,7.65-3,9.023-3.493a3.482,3.482,0,0,1,3.017-.082c1.168.428,7.268,2.856,8.422,3.279s1.2.772.014,1.389" transform="translate(0 -77.893)" fill="#c6302b"/><path d="M21.328,70.123c-1.185.618-7.321,3.141-8.628,3.822a2.917,2.917,0,0,1-3.064.181C8.6,73.633,2.073,70.995.9,70.433c-.588-.281-.9-.518-.9-.742V67.447S8.5,65.6,9.875,65.1a3.482,3.482,0,0,1,3.017-.082c1.168.428,8.152,1.688,9.307,2.111,0,0,0,2,0,2.212s-.266.465-.869.779" transform="translate(0 -58.572)" fill="#912626"/><path d="M21.328,48.977c-1.185.617-7.321,3.14-8.628,3.822a2.917,2.917,0,0,1-3.064.181C8.6,52.486,2.074,49.848.9,49.286s-1.2-.949-.045-1.4,7.65-3,9.023-3.493a3.482,3.482,0,0,1,3.017-.082c1.168.428,7.268,2.856,8.422,3.279s1.2.772.014,1.389h0" transform="translate(0 -39.656)" fill="#c6302b"/><path d="M21.328,26.7c-1.185.617-7.321,3.141-8.628,3.822a2.917,2.917,0,0,1-3.064.181C8.6,30.214,2.073,27.576.9,27.013c-.588-.281-.9-.518-.9-.742V24.027s8.5-1.851,9.875-2.343a3.482,3.482,0,0,1,3.017-.082c1.168.428,8.152,1.688,9.307,2.111,0,0,0,2,0,2.212s-.266.465-.869.779" transform="translate(0 -18.917)" fill="#912626"/><path d="M21.328,5.556C20.143,6.173,14.007,8.7,12.7,9.378a2.917,2.917,0,0,1-3.064.181C8.6,9.066,2.074,6.428.9,5.865s-1.2-.949-.045-1.4,7.65-3,9.023-3.493A3.481,3.481,0,0,1,12.891.889c1.168.428,7.268,2.856,8.422,3.279s1.2.771.014,1.389" transform="translate(0 0)" fill="#c6302b"/><path d="M104.2,15.67l-1.908.2-.427,1.028-.69-1.147-2.2-.2,1.644-.593-.493-.91,1.54.6,1.451-.475-.392.941,1.48.554" transform="translate(-90.391 -12.296)" fill="#fff"/><path d="M93.516,66.464l-3.562-1.477,5.1-.783-1.542,2.261" transform="translate(-82.155 -58.103)" fill="#fff"/><path d="M45.349,39.347c1.507,0,2.728.473,2.728,1.057s-1.221,1.057-2.728,1.057-2.728-.473-2.728-1.057,1.221-1.057,2.728-1.057" transform="translate(-38.926 -35.402)" fill="#fff"/><path d="M185.295,36l3.021,1.194L185.3,38.384l0-2.386" transform="translate(-169.228 -32.344)" fill="#621b1c"/><path d="M146.755,37.32,150.1,36l0,2.386-.328.128-3.017-1.192" transform="translate(-134.03 -32.344)" fill="#9a2928"/></g></svg>