<svg xmlns="http://www.w3.org/2000/svg" width="22" height="21" viewBox="0 0 18 17.112"><g transform="translate(-20.454 22.546)"><path d="M15.953,10.291a3.1,3.1,0,0,0-1.631.479A5.041,5.041,0,0,1,13.958,9.7a3.632,3.632,0,0,1-.033-.9,9.722,9.722,0,0,1,.214-.971c0-.042-.039-.238-.4-.242s-.674.088-.71.208a6.1,6.1,0,0,0-.151.679,17.954,17.954,0,0,1-1.1,2.684,3.388,3.388,0,0,1-.25-.784,3.632,3.632,0,0,1-.033-.9,9.722,9.722,0,0,1,.214-.971c0-.042-.039-.238-.4-.242s-.674.088-.71.208-.076.4-.151.679-.953,2.759-1.184,3.4c-.118.329-.22.592-.293.771h0a.217.217,0,0,1-.013.033c-.062.154-.1.238-.1.238v0c-.049.113-.1.217-.128.217a1.755,1.755,0,0,1,.007-.709c.131-.863.444-2.2.441-2.251a.332.332,0,0,0-.2-.379.284.284,0,0,0-.372.079c-.023,0-.039.071-.039.071s.286-1.509-.546-1.509c-.519,0-1.236.721-1.591,1.371-.224.154-.7.483-1.21.838-.194.138-.395.275-.582.4-.013-.017-.026-.038-.039-.054C3.585,10.312,1.724,9.349,1.8,7.52c.03-.667.21-2.417,3.574-4.543,2.768-1.73,4.971-1.25,5.353-.188.546,1.517-1.18,4.335-4.041,4.743A1.872,1.872,0,0,1,4.88,6.953c-.151-.208-.174-.221-.23-.179-.092.063-.033.25,0,.358A1.856,1.856,0,0,0,5.682,8.161a4.421,4.421,0,0,0,3.354-.421,5.18,5.18,0,0,0,2.689-5.193C11.328.538,8.7-.124,6.209,1A12.223,12.223,0,0,0,1.971,4.081a5.147,5.147,0,0,0-1.5,3.63c.319,2.1,2.6,3.468,3.518,4.48-.046.033-.089.063-.125.088-.457.288-2.2,1.442-2.634,2.663-.493,1.384.079,2.376.457,2.509A2.587,2.587,0,0,0,4.716,15.9a4.761,4.761,0,0,0,.27-3.547.092.092,0,0,0-.013-.025l.358-.267c.233-.175.464-.338.661-.471A6.8,6.8,0,0,0,5.758,13.1a3.763,3.763,0,0,0,.536,2.2.513.513,0,0,0,.434.179c.388,0,.562-.408.756-.892.237-.592.45-1.279.45-1.279s-.266,1.859.457,1.859c.263,0,.529-.433.648-.654v0s.007-.013.02-.042l.043-.088v-.008c.105-.233.342-.763.694-1.642.454-1.134.891-2.551.891-2.551a8.911,8.911,0,0,0,.174.921,9.98,9.98,0,0,0,.375,1.067c-.105.188-.171.292-.171.292l0,0c-.086.142-.178.3-.279.446a13.314,13.314,0,0,0-.845,1.342.428.428,0,0,0,.079.492.59.59,0,0,0,.441.092,1.684,1.684,0,0,0,.661-.192,2.1,2.1,0,0,0,.569-.379,1.789,1.789,0,0,0,.546-1.421,3.5,3.5,0,0,0-.207-1c.033-.058.062-.117.1-.175a20.937,20.937,0,0,0,.986-2.159,8.91,8.91,0,0,0,.174.921,7.118,7.118,0,0,0,.319.917,4.014,4.014,0,0,0-.96,1.571c-.207.759-.046,1.1.26,1.179a.756.756,0,0,0,.48-.125,2.06,2.06,0,0,0,.608-.4,1.843,1.843,0,0,0,.671-1.409,3.273,3.273,0,0,0-.151-.834,2.78,2.78,0,0,1,1.746-.254,1.922,1.922,0,0,1,1.815,1.992,1.33,1.33,0,0,1-.5.892c-.109.088-.145.117-.135.179.013.092.066.088.158.071a1.486,1.486,0,0,0,.852-1.38,2.441,2.441,0,0,0-2.5-2.551ZM3.881,15.451c-.519.717-1.243.988-1.555.759-.335-.246-.2-1.3.434-2.063a8.764,8.764,0,0,1,1.22-1.155c.076-.058.187-.142.322-.246l.036-.025h0l.079-.062a3.406,3.406,0,0,1-.536,2.792Zm3.781-3.259c-.181.558-.559,1.988-.789,1.909-.2-.067-.319-1.15-.039-2.221a5.556,5.556,0,0,1,.615-1.43c.283-.4.6-.534.671-.371a8.983,8.983,0,0,1-.457,2.113Zm3.12,1.892c-.076.05-.148.083-.181.058s.033-.083.033-.083.391-.533.546-.775c.089-.142.194-.308.306-.5v.054a1.672,1.672,0,0,1-.7,1.242Zm2.407-.7c-.056-.05-.046-.217.141-.738a2.814,2.814,0,0,1,.536-.875,1.468,1.468,0,0,1,.053.383,1.233,1.233,0,0,1-.73,1.23Z" transform="translate(20 -23)" fill="#cd6799"/></g></svg>